<svg id="multimedia-option" xmlns="http://www.w3.org/2000/svg" width="13.627" height="11.318" viewBox="0 0 13.627 11.318">
  <g id="Group_7" data-name="Group 7">
    <path id="Path_2" data-name="Path 2" d="M.766,46.265l-.021,0H9.863L7,43.4a.753.753,0,0,1,0-1.058l.446-.446a.746.746,0,0,1,1.053,0L13.409,46.8a.751.751,0,0,1,0,1.057L8.5,52.775a.747.747,0,0,1-1.053,0L7,52.329a.738.738,0,0,1-.217-.526A.716.716,0,0,1,7,51.286L9.9,48.4H.756A.772.772,0,0,1,0,47.632V47A.757.757,0,0,1,.766,46.265Z" transform="translate(0 -41.674)" fill="#505050"/>
  </g>
</svg>
