<svg xmlns="http://www.w3.org/2000/svg" xmlns:xlink="http://www.w3.org/1999/xlink" width="561" height="648" viewBox="0 0 561 648">
  <defs>
    <clipPath id="clip-path">
      <circle id="Ellipse_12" data-name="Ellipse 12" cx="53.628" cy="53.628" r="53.628" fill="none"/>
    </clipPath>
    <clipPath id="clip-path-2">
      <rect id="Rectangle_43" data-name="Rectangle 43" width="26.026" height="22.683" fill="none"/>
    </clipPath>
    <clipPath id="clip-path-3">
      <path id="Path_2170" data-name="Path 2170" d="M538.545,259.333l-16.419,28.439h32.838Z" transform="translate(-522.126 -259.333)" fill="none"/>
    </clipPath>
    <clipPath id="clip-path-4">
      <circle id="Ellipse_14" data-name="Ellipse 14" cx="16.043" cy="16.043" r="16.043" fill="none"/>
    </clipPath>
  </defs>
  <g id="Group_6934" data-name="Group 6934" transform="translate(-310 -1157)">
    <path id="Path_2210" data-name="Path 2210" d="M19.479,0H541.521A19.745,19.745,0,0,1,561,20V587a19.745,19.745,0,0,1-19.479,20H19.479A19.745,19.745,0,0,1,0,587V20A19.745,19.745,0,0,1,19.479,0Z" transform="translate(310 1157)" fill="#145f84"/>
    <g id="Group_4751" data-name="Group 4751" transform="translate(-4009.55 70.903)">
      <path id="Path_2128" data-name="Path 2128" d="M460.5,449.938l96.828,40.627h138.4L605,449.667" transform="translate(4148.82 1243.533)" fill="#a462bc" opacity="0.45" style="mix-blend-mode: multiply;isolation: isolate"/>
      <circle id="Ellipse_11" data-name="Ellipse 11" cx="53.628" cy="53.628" r="53.628" transform="translate(4537.816 1381.727)" fill="#fffe7f"/>
      <g id="Group_4706" data-name="Group 4706" transform="translate(4537.816 1381.727)">
        <g id="Group_4705" data-name="Group 4705" transform="translate(0 0)" clip-path="url(#clip-path)">
          <path id="Path_2159" data-name="Path 2159" d="M451.508,186.067a71.146,71.146,0,0,1-22.663-3.678,3.9,3.9,0,0,1-1.317-.641c-1.243-1.054-.682-3.24.639-4.2s3.05-1.054,4.674-1.2a47.736,47.736,0,0,0,6.6-1.073,3.494,3.494,0,0,0,1.71-.764c1.256-1.242.108-3.406-1.3-4.467-4.071-3.054-9.624-2.9-14.5-4.348a2.821,2.821,0,0,1-1.163-.565,2.319,2.319,0,0,1-.551-.909c-1.154-3.132,1.239-6.69,4.332-7.943s6.591-.786,9.863-.124c2.738.554,5.767,1.189,8.181-.219-4.428-5.329-10.957-8.536-17.634-10.384a20.715,20.715,0,0,1-5.056-1.8,4.991,4.991,0,0,1-.6-8.843c3.185-2.491,7.661-2.441,11.639-1.714s7.953,2.014,11.975,1.589a51.393,51.393,0,0,0-8.238-8.759c-1.2-1.007-2.585-2.38-2.109-3.871.537-1.681,2.859-1.8,4.592-1.463,7.414,1.426,14.6,5.031,22.112,4.281a2.173,2.173,0,0,0,1.372-.489c.708-.717.2-1.925-.379-2.748-2.983-4.216-7.283-7.4-10.053-11.762a1.644,1.644,0,0,1-.34-.917c.026-.616.676-1,1.266-1.18,2.78-.839,7.024.1,9.834.7,2.907.622,6.018,3.275,9.136,2.841,3.833-.532,4.153-4.689,5.292-7.625.906-2.333,3.011-4.537,5.5-4.309,2.174.2,3.788,2.183,4.513,4.241s.822,4.288,1.435,6.382c1.095,3.74,3.742,6.794,6.316,9.72.861.977,2.078,2.053,3.294,1.586,1.025-.395,1.358-1.654,1.551-2.736q1.048-5.866,2.1-11.732c.154-.86.423-1.866,1.245-2.163,1.234-.446,2.22,1.069,2.663,2.305l3.252,9.057c.838,2.331,2.022,4.988,4.432,5.562" transform="translate(-381.464 -72.546)" fill="none" stroke="#ffeb5c" stroke-miterlimit="10" stroke-width="2"/>
        </g>
      </g>
      <g id="Group_4717" data-name="Group 4717" transform="translate(4487.312 1379.097)">
        <g id="Group_4710" data-name="Group 4710" transform="translate(0 182.631)" opacity="0.4">
          <line id="Line_1" data-name="Line 1" x2="6.535" transform="translate(0 3.267)" fill="none" stroke="#fff" stroke-linecap="round" stroke-linejoin="round" stroke-width="2.475"/>
          <line id="Line_2" data-name="Line 2" y1="6.535" transform="translate(3.267)" fill="none" stroke="#fff" stroke-linecap="round" stroke-linejoin="round" stroke-width="2.475"/>
        </g>
        <g id="Group_4711" data-name="Group 4711" transform="translate(323.182 30.547)" opacity="0.3">
          <line id="Line_3" data-name="Line 3" x2="6.535" transform="translate(0 3.267)" fill="none" stroke="#fff" stroke-linecap="round" stroke-linejoin="round" stroke-width="2.475"/>
          <line id="Line_4" data-name="Line 4" y1="6.535" transform="translate(3.267)" fill="none" stroke="#fff" stroke-linecap="round" stroke-linejoin="round" stroke-width="2.475"/>
        </g>
        <g id="Group_4712" data-name="Group 4712" transform="translate(57.652 28.809)" opacity="0.4">
          <line id="Line_5" data-name="Line 5" x2="7.745" transform="translate(0 3.872)" fill="none" stroke="#fff" stroke-linecap="round" stroke-linejoin="round" stroke-width="1.714"/>
          <line id="Line_6" data-name="Line 6" y1="7.745" transform="translate(3.873)" fill="none" stroke="#fff" stroke-linecap="round" stroke-linejoin="round" stroke-width="1.714"/>
        </g>
        <g id="Group_4713" data-name="Group 4713" transform="translate(165.519 4.231)" opacity="0.3">
          <line id="Line_7" data-name="Line 7" x2="6.535" transform="translate(0 3.267)" fill="none" stroke="#fff" stroke-linecap="round" stroke-linejoin="round" stroke-width="2.475"/>
          <line id="Line_8" data-name="Line 8" y1="6.535" transform="translate(3.267)" fill="none" stroke="#fff" stroke-linecap="round" stroke-linejoin="round" stroke-width="2.475"/>
        </g>
        <g id="Group_4714" data-name="Group 4714" transform="translate(101.134 145.854)">
          <line id="Line_9" data-name="Line 9" x2="4.604" transform="translate(0 2.302)" fill="none" stroke="#fff" stroke-linecap="round" stroke-linejoin="round" stroke-width="1.743"/>
          <line id="Line_10" data-name="Line 10" y1="4.604" transform="translate(2.302)" fill="none" stroke="#fff" stroke-linecap="round" stroke-linejoin="round" stroke-width="1.743"/>
        </g>
        <g id="Group_4715" data-name="Group 4715" transform="translate(329.863 132.447)">
          <line id="Line_11" data-name="Line 11" x2="4.604" transform="translate(0 2.302)" fill="none" stroke="#fff" stroke-linecap="round" stroke-linejoin="round" stroke-width="1.743"/>
          <line id="Line_12" data-name="Line 12" y1="4.604" transform="translate(2.302)" fill="none" stroke="#fff" stroke-linecap="round" stroke-linejoin="round" stroke-width="1.743"/>
        </g>
        <g id="Group_4716" data-name="Group 4716" transform="translate(248.315 0)" opacity="0.3">
          <line id="Line_13" data-name="Line 13" x2="3.267" transform="translate(0 1.634)" fill="none" stroke="#fff" stroke-linecap="round" stroke-linejoin="round" stroke-width="1.237"/>
          <line id="Line_14" data-name="Line 14" y1="3.267" transform="translate(1.634)" fill="none" stroke="#fff" stroke-linecap="round" stroke-linejoin="round" stroke-width="1.237"/>
        </g>
        <path id="Path_2161" data-name="Path 2161" d="M393.775,203.256a3.789,3.789,0,1,1-3.79-3.789A3.789,3.789,0,0,1,393.775,203.256Z" transform="translate(-324.563 -88.661)" fill="none" stroke="#fff" stroke-linecap="round" stroke-linejoin="round" stroke-width="2.112" opacity="0.7"/>
        <path id="Path_2162" data-name="Path 2162" d="M705.659,296.359a1.895,1.895,0,1,1-1.895-1.895A1.895,1.895,0,0,1,705.659,296.359Z" transform="translate(-383.74 -106.47)" fill="none" stroke="#fff" stroke-linecap="round" stroke-linejoin="round" stroke-width="1.056"/>
        <path id="Path_2163" data-name="Path 2163" d="M437.593,296.046a4.133,4.133,0,1,1-4.133-4.133A4.133,4.133,0,0,1,437.593,296.046Z" transform="translate(-332.648 -105.992)" fill="none" stroke="#fff" stroke-linecap="round" stroke-linejoin="round" stroke-width="0.535"/>
        <path id="Path_2164" data-name="Path 2164" d="M728.18,346.046a4.133,4.133,0,1,1-4.133-4.133A4.134,4.134,0,0,1,728.18,346.046Z" transform="translate(-387.122 -115.365)" fill="none" stroke="#fff" stroke-linecap="round" stroke-linejoin="round" stroke-width="0.535"/>
        <path id="Path_2165" data-name="Path 2165" d="M676.618,168.809a3,3,0,1,1-2.995-3A2.995,2.995,0,0,1,676.618,168.809Z" transform="translate(-377.883 -82.353)" fill="none" stroke="#fff" stroke-linecap="round" stroke-linejoin="round" stroke-width="0.619"/>
        <path id="Path_2166" data-name="Path 2166" d="M317.045,141.629a3,3,0,1,1-2.995-2.995A3,3,0,0,1,317.045,141.629Z" transform="translate(-310.477 -77.258)" fill="none" stroke="#fff" stroke-linecap="round" stroke-linejoin="round" stroke-width="0.619"/>
      </g>
      <g id="Group_4727" data-name="Group 4727" transform="translate(4609.138 1418.475)">
        <rect id="Rectangle_38" data-name="Rectangle 38" width="145.302" height="274.667" transform="translate(0 0)" fill="#fcf8fc"/>
        <rect id="Rectangle_39" data-name="Rectangle 39" width="135.423" height="261.637" transform="translate(4.922 6.587)" fill="#072c3f"/>
        <g id="Group_4718" data-name="Group 4718" transform="translate(26.906 36.38)">
          <rect id="Rectangle_40" data-name="Rectangle 40" width="47.779" height="41.643" fill="#6d84f3"/>
          <line id="Line_15" data-name="Line 15" x1="47.779" transform="translate(0 33.822)" fill="none" stroke="#000" stroke-miterlimit="10" stroke-width="1"/>
        </g>
        <g id="Group_4721" data-name="Group 4721" transform="translate(69.429 186.158)">
          <rect id="Rectangle_41" data-name="Rectangle 41" width="47.779" height="41.643" fill="#fffbff"/>
          <rect id="Rectangle_42" data-name="Rectangle 42" width="26.026" height="22.683" transform="translate(10.877 10.902)" fill="#ff5801"/>
          <line id="Line_16" data-name="Line 16" x1="47.779" transform="translate(0 33.822)" fill="none" stroke="#000" stroke-miterlimit="10" stroke-width="1"/>
          <g id="Group_4720" data-name="Group 4720" transform="translate(10.877 10.902)">
            <g id="Group_4719" data-name="Group 4719" clip-path="url(#clip-path-2)">
              <path id="Path_2167" data-name="Path 2167" d="M587.445,348.357a2.178,2.178,0,0,0-3.716,1.914,4.408,4.408,0,0,0,1.64,2.265l2.733,2.432c1.025.912,2.148,2.087,1.9,3.435-.314,1.7-2.434,2.215-4.128,2.547s-3.762,1.45-3.4,3.137a3.508,3.508,0,0,0,.974,1.539l4.178,4.57c.72.787,1.493,1.813,1.131,2.815-.4,1.123-1.883,1.321-3.076,1.33l-22.716.173" transform="translate(-559.831 -352.886)" fill="none" stroke="#e24703" stroke-miterlimit="10" stroke-width="1"/>
            </g>
          </g>
        </g>
        <g id="Group_4724" data-name="Group 4724" transform="translate(43.022 114.519)">
          <rect id="Rectangle_44" data-name="Rectangle 44" width="47.779" height="41.643" fill="#fffbff"/>
          <line id="Line_17" data-name="Line 17" x1="47.779" transform="translate(0 34.33)" fill="none" stroke="#000" stroke-miterlimit="10" stroke-width="1"/>
          <path id="Path_2168" data-name="Path 2168" d="M538.545,259.333l-16.419,28.439h32.838Z" transform="translate(-514.893 -253.781)" fill="#6d81ff"/>
          <g id="Group_4723" data-name="Group 4723" transform="translate(7.234 5.552)">
            <g id="Group_4722" data-name="Group 4722" clip-path="url(#clip-path-3)">
              <path id="Path_2169" data-name="Path 2169" d="M546.99,263.462a1.9,1.9,0,0,0-2.558.91,2.773,2.773,0,0,0,.187,2.148c1.451,3.218,5.683,4.519,7,7.795a5.374,5.374,0,0,1-.822,5.307c-1.08,1.311-2.88,2.283-2.993,3.978a4.642,4.642,0,0,0,.786,2.449l2.837,5.205a3.776,3.776,0,0,1-2.341.451l-20.831-.532" transform="translate(-523.275 -260.07)" fill="none" stroke="#4d69f4" stroke-miterlimit="10" stroke-width="1"/>
            </g>
          </g>
        </g>
        <g id="Group_4725" data-name="Group 4725" transform="translate(95.929 44.776)">
          <line id="Line_18" data-name="Line 18" x2="29.516" fill="none" stroke="#47727f" stroke-miterlimit="10" stroke-width="0.795"/>
          <line id="Line_19" data-name="Line 19" x2="29.516" transform="translate(0 4.74)" fill="none" stroke="#47727f" stroke-miterlimit="10" stroke-width="0.795"/>
          <line id="Line_20" data-name="Line 20" x2="29.516" transform="translate(0 9.48)" fill="none" stroke="#47727f" stroke-miterlimit="10" stroke-width="0.795"/>
        </g>
        <g id="Group_4726" data-name="Group 4726" transform="translate(23.748 200.648)">
          <line id="Line_21" data-name="Line 21" x2="29.516" fill="none" stroke="#47727f" stroke-miterlimit="10" stroke-width="0.795"/>
          <line id="Line_22" data-name="Line 22" x2="29.516" transform="translate(0 4.74)" fill="none" stroke="#47727f" stroke-miterlimit="10" stroke-width="0.795"/>
          <line id="Line_23" data-name="Line 23" x2="29.516" transform="translate(0 9.48)" fill="none" stroke="#47727f" stroke-miterlimit="10" stroke-width="0.795"/>
        </g>
        <rect id="Rectangle_45" data-name="Rectangle 45" width="103.599" height="14.626" transform="translate(21.308 240.056)" fill="none" stroke="#47727f" stroke-miterlimit="10" stroke-width="0.795"/>
      </g>
      <g id="Group_4742" data-name="Group 4742" transform="translate(4689.063 1482.278)">
        <path id="Path_2171" data-name="Path 2171" d="M588.918,220.9a5.24,5.24,0,0,0-.211-3.954c-1.14.08-5.04-.5-4.4-4.733a1.55,1.55,0,0,1,.775-1.164c.619-.32,1.373-.159,1.626,1.326a1.421,1.421,0,0,0,.823,1.109c.533.212,1.141.055,1.459-1.153.495-1.88-.545-4.576-2.45-4.4a2.269,2.269,0,0,1-.687-.03,1.066,1.066,0,0,1-.319-1.948c1.146-.727,3.83-1.829,5.355,1.029a7.546,7.546,0,0,1,.744,2.387s-.246-6.873,1.935-7.058,1.471,7.222,1.471,7.222-1.327-5.893,1.374-6.19a1.924,1.924,0,0,1,2.022,1.517c.729,3.164,1.006,10.843-2.374,20.7A72.457,72.457,0,0,0,588.918,220.9Z" transform="translate(-563.439 -192.375)" fill="#f76b0b"/>
        <g id="Group_4739" data-name="Group 4739" transform="translate(20.178 15.665)">
          <g id="Group_4733" data-name="Group 4733">
            <path id="Path_2172" data-name="Path 2172" d="M596.647,217.465s-.377,1.508-.856,2.8.2,5.844,1.374,7.6c-2.58,2.446-10.146,2.56-10.146,2.56s.406-4.734.661-5.883c.921-1.143,6-7.666,6-7.666Z" transform="translate(-584.139 -210.77)" fill="#f76b0b"/>
            <g id="Group_4728" data-name="Group 4728" transform="translate(1.842 15.161)">
              <path id="Path_2173" data-name="Path 2173" d="M629.246,265.471l-1.49-26.485s-4.159,1.21-8.408,1.959a66.743,66.743,0,0,1-7.833.759c-1.167-.011-11.679-.479-14.59-13.683,0,0-6.178,4.009-10.7,2.9-1.3,4.514-1.78,29.922,22.912,34.577C609.261,265.611,626.746,267.712,629.246,265.471Z" transform="translate(-585.741 -228.021)" fill="#fffcf3"/>
            </g>
            <g id="Group_4732" data-name="Group 4732">
              <g id="Group_4731" data-name="Group 4731">
                <path id="Path_2174" data-name="Path 2174" d="M594.4,223.17s-2.243.016-2.4.459-2.731,1.272-3.039.947a1.722,1.722,0,0,0-.318-.262l7.274-10.134c.059.106.887.908.942,1.028.689,3.174-1.533,4.391-2,5.314A7.637,7.637,0,0,0,594.4,223.17Z" transform="translate(-584.444 -210.265)" fill="#f76b0b"/>
                <path id="Path_2175" data-name="Path 2175" d="M593.833,213.465l0,0a1.531,1.531,0,0,1-.411.275,1.665,1.665,0,0,1-.947.123,2.347,2.347,0,0,1-.265-.067.044.044,0,0,1-.019-.011.944.944,0,0,1-.157-.066.9.9,0,0,1-.1-.059.966.966,0,0,1,.124.223l0,0a1.32,1.32,0,0,1,.073.315,1.686,1.686,0,0,1-1.464,1.986.608.608,0,0,1-.11,0l0,0a2.333,2.333,0,0,1-.5-.071l-.029-.01a.229.229,0,0,1,.046.041.016.016,0,0,1,.008.008.832.832,0,0,1,.176.18,1.3,1.3,0,0,1,.242.553,1.148,1.148,0,0,1-.258.972,1.1,1.1,0,0,1-1.006.31,1.959,1.959,0,0,1-.306-.059.484.484,0,0,1,.042.089.426.426,0,0,1,.039.083.158.158,0,0,0,.013.042l0,0a1.555,1.555,0,0,1,.065.274,1.726,1.726,0,0,1-.417,1.388c-.032.033-.064.066-.1.1a1.153,1.153,0,0,1-1.074.115,10.533,10.533,0,0,1-1.768-.7,1.408,1.408,0,0,1-.135-.069.721.721,0,0,1-.087-.05l-.02-.007s-.013-.009-.018-.011a4.087,4.087,0,0,1-1.761-1.578c-.891-1.853,1-4.434,2.143-6a5.282,5.282,0,0,1,4.881-2.415,2.808,2.808,0,0,1,.594.122l.006,0a5.051,5.051,0,0,1,1.385.681,3.328,3.328,0,0,1,1.325,2.186,2.264,2.264,0,0,1,.049.275.016.016,0,0,0,0,.011.1.1,0,0,0,0,.028.407.407,0,0,1,.018.1.908.908,0,0,1,.008.094A.923.923,0,0,1,593.833,213.465Z" transform="translate(-583.475 -209.362)" fill="#f76b0b"/>
                <path id="Path_2176" data-name="Path 2176" d="M595.5,213.43a.942.942,0,0,0-.008-.094c-.007-.046-.015-.075-.018-.1a.238.238,0,0,1,0-.039,1.022,1.022,0,0,1-.93.915,2.164,2.164,0,0,1-1.045-.176,4.778,4.778,0,0,1-.9-.686,4.335,4.335,0,0,0-1.77-.9,4.225,4.225,0,0,1,1.6,1.09l.895.779c.018.01.032.015.049.024a1.563,1.563,0,0,0,.228.112,2.358,2.358,0,0,0,.265.067,1.615,1.615,0,0,0,1.359-.4A.923.923,0,0,0,595.5,213.43Z" transform="translate(-584.851 -209.924)" fill="#c95405"/>
                <path id="Path_2177" data-name="Path 2177" d="M592.933,215.253a1.317,1.317,0,0,0-.073-.315,1.038,1.038,0,0,1-.034.385,3.142,3.142,0,0,1-.185.726,1.448,1.448,0,0,1-.655.775,1.139,1.139,0,0,1-.681.111,1.273,1.273,0,0,1-.646-.354,7.589,7.589,0,0,0-.664-.51,6.442,6.442,0,0,0-1.071-.6,6.036,6.036,0,0,0-1.157-.376,6.15,6.15,0,0,1,1.1.488,5.738,5.738,0,0,1,.97.7,8.735,8.735,0,0,1,.987.879l.029.01a2.444,2.444,0,0,0,.506.073A1.673,1.673,0,0,0,592.933,215.253Z" transform="translate(-584.279 -210.408)" fill="#c95405"/>
                <g id="Group_4729" data-name="Group 4729" transform="translate(6.529 3.323)">
                  <path id="Path_2178" data-name="Path 2178" d="M593.54,214.49a.888.888,0,0,1-.1-.058.972.972,0,0,1,.124.223l0,0a1.323,1.323,0,0,1,.073.315,1.686,1.686,0,0,1-1.464,1.986,2.369,2.369,0,0,1-.4-.525,2.188,2.188,0,0,1-.243-1.353,2.278,2.278,0,0,1,.553-1.29,1.216,1.216,0,0,1,.705-.334,1.652,1.652,0,0,1,.73.1,5.941,5.941,0,0,1,1.119.753c.1.068.2.132.288.2a1.665,1.665,0,0,1-.947.123,2.356,2.356,0,0,1-.265-.067.044.044,0,0,1-.019-.011A.944.944,0,0,1,593.54,214.49Z" transform="translate(-591.51 -213.452)" fill="#c95405"/>
                </g>
                <g id="Group_4730" data-name="Group 4730" transform="translate(6.966 3.226)">
                  <path id="Path_2179" data-name="Path 2179" d="M597.2,215.867c-.432-.385-1.618,1.138-1.786,1.388a10.233,10.233,0,0,0-.641,1.09,3.609,3.609,0,0,1-.282.695c-.01.009.009.037.01.046a2.881,2.881,0,0,0-.45-.721,6.352,6.352,0,0,0-.535-.73,7.75,7.75,0,0,1-1.2-1.32,2.2,2.2,0,0,1-.249-1.351,2.284,2.284,0,0,1,.556-1.289,1.192,1.192,0,0,1,.707-.336,1.685,1.685,0,0,1,.729.1,5.9,5.9,0,0,1,1.119.751A7.3,7.3,0,0,1,597.2,215.867Z" transform="translate(-592.048 -213.332)" fill="#f76b0b"/>
                </g>
                <path id="Path_2180" data-name="Path 2180" d="M589.227,218.177a1.959,1.959,0,0,1-.306-.059.484.484,0,0,1,.042.089.426.426,0,0,1,.039.083.158.158,0,0,0,.013.042l0,0a1.555,1.555,0,0,1,.065.274,1.726,1.726,0,0,1-.417,1.388c-.032.033-.064.066-.1.1a1.153,1.153,0,0,1-1.074.115,10.533,10.533,0,0,1-1.768-.7,1.408,1.408,0,0,1-.135-.069.721.721,0,0,1-.087-.05l-.02-.007s-.013-.009-.018-.011a4.087,4.087,0,0,1-1.761-1.578c-.891-1.853,1-4.434,2.143-6a5.282,5.282,0,0,1,4.881-2.415,2.808,2.808,0,0,1,.594.122c-.213.176-5.892,4.879-1.091,8.368A1.1,1.1,0,0,1,589.227,218.177Z" transform="translate(-583.475 -209.362)" fill="#ffd5b6" opacity="0.3" style="mix-blend-mode: multiply;isolation: isolate"/>
              </g>
              <path id="Path_2181" data-name="Path 2181" d="M589.424,219.708c-.58-.276-1.1-.625-1.642-.937-.259-.175-.531-.327-.8-.488a7.526,7.526,0,0,0-.829-.443,2.635,2.635,0,0,1,.934.232,7.58,7.58,0,0,1,.852.438A7.315,7.315,0,0,1,589.424,219.708Z" transform="translate(-583.977 -210.952)" fill="#c95405"/>
            </g>
          </g>
          <g id="Group_4738" data-name="Group 4738" transform="translate(8.035 2.896)">
            <path id="Path_2182" data-name="Path 2182" d="M693.152,436.1a9.538,9.538,0,0,1-1.244,8.613c-2.166,3.339-2.948,5.439-2.263,7.2a1.579,1.579,0,0,0,2.682.431l20.534-24.675a1.2,1.2,0,0,0-.1-1.637c-1.425-1.35-4.423-4.325-7.531-4.385Z" transform="translate(-611.368 -252.054)" fill="#072c3f"/>
            <path id="Path_2183" data-name="Path 2183" d="M648.244,318.665c-1.211.245-2.042,46.3-2.042,46.3l-.813,20.519v.012l-1.522,38.6s-4.4.483-18.068-.519c.623-4.5-2.373-20.118-4.567-39.6h-.007c-2.164-31.067-3.595-68.534-3.595-68.534s28.046-7,28.229-8.218S649.461,318.42,648.244,318.665Z" transform="translate(-597.913 -230.586)" fill="#1d49b7"/>
            <path id="Path_2184" data-name="Path 2184" d="M696.1,401.036c-4.5,7.618-12.479,15.75-12.479,15.75s-19.382-14.491-32.637-30.6c-5.577-6.775-10.07-13.83-11.58-20.213-5.093-21.558-.874-47.733-.874-47.733L669.3,311.58s3.149,3.962-2.88,43.551c-.428,3.24-.177,8.59,4.958,17.267C675.578,379.5,683.05,388.826,696.1,401.036Z" transform="translate(-601.523 -231.42)" fill="#1d49b7"/>
            <path id="Path_2185" data-name="Path 2185" d="M670.521,313.9s2.723,14.374-2.14,41.76c-1.456,8.114-.347,21.854,31.883,48.444" transform="translate(-607.354 -231.854)" fill="none" stroke="#fff" stroke-miterlimit="10" stroke-width="0.752"/>
            <path id="Path_2186" data-name="Path 2186" d="M663.425,319.487s-1.107,8.623,6.989,7.633" transform="translate(-606.488 -232.902)" fill="none" stroke="#fff" stroke-miterlimit="10" stroke-width="0.752"/>
            <path id="Path_2187" data-name="Path 2187" d="M624.628,450.436s-1.269,2.675-6.407,3.125c-3.715.325-5.718.96-6.625,2.482a1.48,1.48,0,0,0,1.229,2.23l30.07.935a1.122,1.122,0,0,0,1.153-1.016c.175-1.832.912-4.735-1.351-7.237Z" transform="translate(-596.743 -257.45)" fill="#072c3f"/>
            <path id="Path_2188" data-name="Path 2188" d="M649.693,386.756c-4.661-5.739-8.327-11.617-9.778-17.059-5.706-21.4-2.242-47.689-2.242-47.689" transform="translate(-601.475 -233.375)" fill="none" stroke="#fff" stroke-miterlimit="10" stroke-width="0.752"/>
            <path id="Path_2189" data-name="Path 2189" d="M669.057,297.862a4.781,4.781,0,0,1-3.023,4.288,96.633,96.633,0,0,1-20.16,5.466c-.795.122-1.608.238-2.433.342a67.756,67.756,0,0,1-20.586-.366c-.82-.154-1.633-.324-2.452-.514a8.021,8.021,0,0,0-.024-1.529,5.814,5.814,0,0,1-.018-1.131c1.754-15.725,1.2-24.414.592-28.59-.336-2.28-4.272-2.226-4.272-2.226l1.484-19.485,5.471-10.318-.366.084,2.507-.569,1.339-.306.893-.2,1.143.2,3.155.55,8.56-1.993,1.216-.288s.361.08.99.245a16.166,16.166,0,0,1,1.859.636c.684.269,1.449.605,2.262,1.008a38.359,38.359,0,0,1,10.547,7.606C669.2,262.907,669.366,288.937,669.057,297.862Z" transform="translate(-597.735 -218.241)" fill="#fffcf3"/>
            <path id="Path_2190" data-name="Path 2190" d="M618.113,259.218s-1.97,18.942-2.761,31.931" transform="translate(-597.485 -221.604)" fill="none" stroke="#d8d8d8" stroke-miterlimit="10" stroke-width="0.752"/>
            <path id="Path_2191" data-name="Path 2191" d="M615.861,289.671s-1.653,15.757-1.486,20.176,2.742,5.346,6.9,6.316,5.151-5.9,5.151-5.9l-1.08-18.525Z" transform="translate(-597.3 -227.313)" fill="#fffcf3"/>
            <path id="Path_2192" data-name="Path 2192" d="M616.207,294.9a37.86,37.86,0,0,0,17.543,5.6" transform="translate(-597.646 -228.293)" fill="none" stroke="#f38888" stroke-miterlimit="10" stroke-width="0.752"/>
            <path id="Path_2193" data-name="Path 2193" d="M644.9,239.209l-5.594,4.519L635.249,247l-1.975-3.639-1.583-2.916a2.388,2.388,0,0,0,.752-.4l.312-5.43,9.854-4.369s1.146,6.075,1.788,8.094v.006A1.728,1.728,0,0,0,644.9,239.209Z" transform="translate(-600.548 -216.173)" fill="#f76b0b"/>
            <g id="Group_4735" data-name="Group 4735" transform="translate(25.642)">
              <g id="Group_4734" data-name="Group 4734" transform="translate(0 0.418)">
                <path id="Path_2194" data-name="Path 2194" d="M630.011,227.327c-.11,1.337-.107,8.059,8.475,5.633,3.1-.818,4.082-3.026,3.8-4.52a2.429,2.429,0,0,0,1.463-3.252,3.291,3.291,0,0,0-2.052-1.814l-1.341-2.2a3.7,3.7,0,0,0-3.052-.424c-1.8.5-7.1,1.481-7.249,1.762S630.1,226.291,630.011,227.327Z" transform="translate(-625.872 -214.783)" fill="#f76b0b"/>
                <path id="Path_2195" data-name="Path 2195" d="M629.061,225.984s.035-3.848,1.13-4.363c.96-.453,6.268.6,8.105-.657a.52.52,0,0,1,.811.267,22.065,22.065,0,0,0,1.188,3.548c0-.84.233-1.627,1.1-1.71a1.2,1.2,0,0,1,1.41.777,2.575,2.575,0,0,1-.543,2.737,4.782,4.782,0,0,0,2.2-4.6c-.135-2.9-1.4-5.992-3.978-5.759-1.735-2.156-6.755-4.845-10.557-.325-1.332.364-3.769,1.132-3.669,4.537-.981,1.577-2.095,3.553-.62,6.578a2.46,2.46,0,0,0,3.549,1.057A11.569,11.569,0,0,1,629.061,225.984Z" transform="translate(-624.922 -213.44)"/>
              </g>
              <path id="Path_2196" data-name="Path 2196" d="M641.969,216.135a7.35,7.35,0,0,0-1.645-1.953l-.238-.214-.263-.181c-.089-.059-.176-.127-.269-.181l-.3-.132-.3-.12-.319-.063a2.6,2.6,0,0,0-.644-.063,9.525,9.525,0,0,0-2.535.369l-1.238.38c-.406.154-.816.3-1.243.43l-.019-.035c.368-.243.753-.465,1.143-.681.4-.188.822-.345,1.241-.5a6.154,6.154,0,0,1,2.672-.179,3.907,3.907,0,0,1,.652.148l.323.079.313.116a3.9,3.9,0,0,1,.626.241l.31.143.286.184a3.755,3.755,0,0,1,1.481,2.2Z" transform="translate(-626.428 -212.926)" fill="#140904"/>
              <path id="Path_2197" data-name="Path 2197" d="M630.4,216.034c-.648.2-1.261.409-1.871.631a4.569,4.569,0,0,0-.463.165,2.043,2.043,0,0,0-.443.219,1.678,1.678,0,0,0-.386.306,1.746,1.746,0,0,0-.315.375,5.154,5.154,0,0,0-.462.841,4.713,4.713,0,0,0-.237.917,6.168,6.168,0,0,0-.111.956c-.013.325.016.654-.006,1l-.038.008a5.966,5.966,0,0,1-.264-.99,3.888,3.888,0,0,1,0-1.041,3.014,3.014,0,0,1,.953-1.831,2.764,2.764,0,0,1,.39-.334,3.9,3.9,0,0,1,.4-.311,5.8,5.8,0,0,1,.848-.581,3.755,3.755,0,0,1,2-.368Z" transform="translate(-625.081 -213.498)" fill="#140904"/>
            </g>
            <path id="Path_2198" data-name="Path 2198" d="M631.014,242.8l3.558,6.554-4.194,5.015-2.295-10.809Z" transform="translate(-599.872 -218.526)" fill="#1d49b7"/>
            <path id="Path_2199" data-name="Path 2199" d="M636.07,249.067l3.551,5.35s7.807-8.993,9.824-11.9a16.87,16.87,0,0,0-3.727-1.242Z" transform="translate(-601.369 -218.241)" fill="#1d49b7"/>
            <path id="Path_2200" data-name="Path 2200" d="M594.869,220.849" transform="translate(-593.646 -214.411)" fill="#fdb3b0"/>
            <g id="Group_4737" data-name="Group 4737" transform="translate(0 31.572)">
              <path id="Path_2201" data-name="Path 2201" d="M593.677,276.389a1.631,1.631,0,0,0,.37,2.289,40.946,40.946,0,0,0,4.147,3.023c2.027,1.434,2.954,1.815,4,1.714a34.377,34.377,0,0,0,4.647,5.727c1.613,1.64,7.737-10.353,5.28-12.151-2.71-1.983-5.007-3.874-5.26-4.07-.41-.317.18-.814.752-2.964.753-2.846-.214-3.032-.714-3.165s-1.089-.423-1.645.5a13.459,13.459,0,0,0-1.566,3.691c-.335-.089-4.635-3.2-5.385-3.4s-1.424.825-1.547,1.285a1.431,1.431,0,0,0,.2,1.082c-.566-.065-1.233.609-1.445,1.221s-.434,1.309.079,1.714c-.7-.053-.975.323-1.343.981a1.476,1.476,0,0,0,.383,1.8A2.07,2.07,0,0,0,593.677,276.389Z" transform="translate(-593.363 -254.568)" fill="#f76b0b"/>
              <g id="Group_4736" data-name="Group 4736" transform="translate(11.125)">
                <path id="Path_2202" data-name="Path 2202" d="M664.476,275.571l-20.01-23.789s-6.828,14.661-9.768,16.725c-.831,1.056-8.657,10.268-22.749,3.63,0,0-.691,8.5-4.887,11.837,3.2,4.367,26.036,22.682,47.659,3.441C654.914,287.389,664.76,279.429,664.476,275.571Z" transform="translate(-607.057 -251.782)" fill="#fffcf3"/>
                <path id="Path_2203" data-name="Path 2203" d="M607.061,290.989a31.229,31.229,0,0,0,3.2,3.158,40.721,40.721,0,0,0,6.033,4.1,35.458,35.458,0,0,0,18.027,4.805c9.968-.254,19.365-5.9,25.187-13.848" transform="translate(-607.056 -258.797)" fill="none" stroke="#d8d8d8" stroke-miterlimit="10" stroke-width="0.752"/>
                <path id="Path_2204" data-name="Path 2204" d="M644.581,254.386c-3.583,6.446-9.525,27.822-31.505,18.239" transform="translate(-608.184 -252.27)" fill="none" stroke="#d8d8d8" stroke-miterlimit="10" stroke-width="0.752"/>
              </g>
            </g>
            <path id="Path_2205" data-name="Path 2205" d="M632.962,235.675a7.875,7.875,0,0,0,8.082.252C639.97,237.424,636.057,240.78,632.962,235.675Z" transform="translate(-600.787 -217.191)" fill="#773000"/>
          </g>
        </g>
        <circle id="Ellipse_13" data-name="Ellipse 13" cx="16.043" cy="16.043" r="16.043" transform="translate(0 0)" fill="#fffe7f"/>
        <g id="Group_4741" data-name="Group 4741" transform="translate(0 0)">
          <g id="Group_4740" data-name="Group 4740" clip-path="url(#clip-path-4)">
            <path id="Path_2206" data-name="Path 2206" d="M566.927,218.358a24.393,24.393,0,0,1-7.773-1.261,1.338,1.338,0,0,1-.452-.22.97.97,0,0,1,.219-1.439,3.16,3.16,0,0,1,1.6-.412,16.419,16.419,0,0,0,2.265-.368,1.2,1.2,0,0,0,.587-.262c.431-.426.037-1.168-.448-1.532-1.4-1.047-3.3-1-4.974-1.491a.973.973,0,0,1-.4-.193.8.8,0,0,1-.189-.312,2.319,2.319,0,0,1,1.485-2.724,5.92,5.92,0,0,1,3.383-.042,4.011,4.011,0,0,0,2.806-.075,11.832,11.832,0,0,0-6.048-3.562,7.1,7.1,0,0,1-1.734-.616,1.712,1.712,0,0,1-.207-3.033,5.008,5.008,0,0,1,3.992-.587,14.645,14.645,0,0,0,4.107.545,17.644,17.644,0,0,0-2.825-3c-.411-.345-.886-.816-.723-1.328.184-.576.98-.616,1.575-.5,2.542.488,5.007,1.725,7.583,1.468a.745.745,0,0,0,.47-.168c.243-.246.07-.66-.13-.943-1.023-1.446-2.5-2.538-3.448-4.034a.565.565,0,0,1-.117-.314c.009-.211.232-.344.435-.4a7.851,7.851,0,0,1,3.373.24c1,.214,2.064,1.123,3.133.975,1.315-.183,1.424-1.609,1.815-2.616a2.057,2.057,0,0,1,1.888-1.478,2.019,2.019,0,0,1,1.549,1.454c.249.706.281,1.471.492,2.19a9.225,9.225,0,0,0,2.166,3.333c.295.336.713.7,1.129.544.352-.136.466-.567.532-.938l.719-4.025c.053-.295.145-.639.427-.741.423-.154.761.366.913.791q.558,1.553,1.116,3.106c.287.8.693,1.711,1.52,1.908" transform="translate(-558.189 -189.816)" fill="none" stroke="#ffeb5c" stroke-miterlimit="10" stroke-width="0.686"/>
          </g>
        </g>
      </g>
      <g id="Group_4743" data-name="Group 4743" transform="translate(4483.126 1381.987)">
        <path id="Path_2207" data-name="Path 2207" d="M619.859,86.184s.125-5.4,4.878-6.309,9.811-.449,11.311-6.837,8.648-8.588,11.241-3.8,7.889,9.646,12.712,5.7,9.937-5.854,13.221-1.723,8.533,11.012,13.671,8.089,12.122,1.97,12.743,4.35Z" transform="translate(-364.18 -66.654)" fill="#9cb1ff"/>
        <path id="Path_2208" data-name="Path 2208" d="M665.087,200.659s.1-4.175,3.768-4.874,7.579-.347,8.737-5.281,6.68-6.634,8.683-2.932,6.094,7.451,9.819,4.4,7.676-4.522,10.213-1.331,6.591,8.507,10.56,6.249,9.364,1.521,9.843,3.36Z" transform="translate(-372.659 -88.947)" fill="#9cb1ff"/>
        <path id="Path_2209" data-name="Path 2209" d="M305.192,117.518s.125-5.405,4.878-6.309,9.812-.449,11.311-6.837,8.648-8.588,11.241-3.8,7.889,9.646,12.711,5.7,9.937-5.854,13.222-1.723,8.533,11.012,13.67,8.09,12.122,1.97,12.743,4.35Z" transform="translate(-305.192 -72.528)" fill="#9cb1ff"/>
      </g>
    </g>
  </g>
</svg>
