<svg xmlns="http://www.w3.org/2000/svg" width="23.109" height="23.109" viewBox="0 0 23.109 23.109">
  <path id="Union_34" data-name="Union 34" d="M-1497.41,20.93l-8.09-8.09-8.09,8.09a2.029,2.029,0,0,1-2.87,0,2.03,2.03,0,0,1,0-2.87l8.09-8.09-8.09-8.09a2.03,2.03,0,0,1,0-2.87,2.03,2.03,0,0,1,2.87,0l8.09,8.09,8.09-8.09a2.03,2.03,0,0,1,2.87,0,2.029,2.029,0,0,1,0,2.87l-8.09,8.09,8.09,8.09a2.029,2.029,0,0,1,0,2.87,2.023,2.023,0,0,1-1.435.595A2.023,2.023,0,0,1-1497.41,20.93Z" transform="translate(1517.054 1.584)" fill="#363636"/>
</svg>
