<svg xmlns="http://www.w3.org/2000/svg" width="300" height="200" viewBox="0 0 300 200">
  <g id="flag_en" transform="translate(0 -0.552)">
    <path id="Path_7110" data-name="Path 7110" d="M0,.552H300v200H0Z" fill="#fff"/>
    <path id="Path_7111" data-name="Path 7111" d="M0,.552H300V15.937H0Zm0,30.77H300V46.707H0ZM0,62.09H300V77.475H0ZM0,92.86H300v15.385H0Zm0,30.769H300v15.385H0ZM0,154.4H300v15.385H0Zm0,30.769H300v15.385H0Z" fill="#b22234"/>
    <path id="Path_7112" data-name="Path 7112" d="M0,.552H151.655V108H0Z" fill="#3c3b6e"/>
    <path id="Path_7113" data-name="Path 7113" d="M5.638,8.34l3.613,2.625-1.38,4.248,3.612-2.625L15.1,15.213l-1.38-4.248L17.328,8.34H12.863l-1.38-4.246L10.1,8.34Zm25.143,0,3.612,2.625-1.38,4.248,3.613-2.625,3.613,2.625-1.38-4.248L42.471,8.34H38.006l-1.38-4.246L35.246,8.34Zm25.143,0,3.612,2.625-1.38,4.248,3.613-2.625,3.612,2.625L64,10.965,67.614,8.34H63.149l-1.38-4.246L60.389,8.34Zm25.143,0,3.612,2.625L83.3,15.213l3.613-2.625,3.612,2.625-1.38-4.248L92.758,8.34H88.291L86.913,4.094,85.532,8.34Zm25.142,0,3.613,2.625-1.38,4.248,3.612-2.625,3.613,2.625-1.38-4.248L117.9,8.34h-4.465l-1.38-4.246-1.38,4.246Zm25.143,0,3.612,2.625-1.38,4.248,3.613-2.625,3.612,2.625-1.38-4.248,3.613-2.625h-4.465L137.2,4.094l-1.38,4.246ZM18.209,19.117l3.613,2.625-1.38,4.246,3.613-2.625,3.612,2.625-1.38-4.246L29.9,19.117H25.434l-1.379-4.248-1.38,4.248Zm25.143,0,3.613,2.625-1.38,4.246L49.2,23.363l3.613,2.625-1.38-4.246,3.612-2.625H50.577L49.2,14.869l-1.38,4.248Zm25.143,0,3.613,2.625-1.38,4.246,3.612-2.625,3.613,2.625-1.38-4.246,3.612-2.625H75.72l-1.38-4.248-1.38,4.248Zm25.143,0,3.612,2.625-1.38,4.246,3.613-2.625,3.612,2.625-1.38-4.246,3.613-2.625h-4.465l-1.38-4.248L98.1,19.117Zm25.142,0,3.613,2.625-1.38,4.246,3.612-2.625,3.613,2.625-1.38-4.246,3.612-2.625h-4.465l-1.38-4.248-1.379,4.248ZM5.638,29.892l3.613,2.625-1.38,4.248,3.612-2.625L15.1,36.764l-1.38-4.248,3.612-2.625H12.863l-1.38-4.246L10.1,29.892Zm25.143,0,3.612,2.625-1.38,4.248,3.613-2.625,3.613,2.625-1.38-4.248,3.612-2.625H38.006l-1.38-4.246-1.38,4.246Zm25.143,0,3.612,2.625-1.38,4.248,3.613-2.625,3.612,2.625L64,32.517l3.613-2.625H63.149l-1.38-4.246-1.38,4.246Zm25.143,0,3.612,2.625L83.3,36.764l3.613-2.625,3.612,2.625-1.38-4.248,3.613-2.625H88.291l-1.379-4.246-1.38,4.246Zm25.142,0,3.613,2.625-1.38,4.248,3.612-2.625,3.613,2.625-1.38-4.248,3.612-2.625h-4.465l-1.38-4.246-1.38,4.246Zm25.143,0,3.612,2.625-1.38,4.248,3.613-2.625,3.612,2.625-1.38-4.248,3.613-2.625h-4.465l-1.38-4.246-1.38,4.246ZM18.52,40.7l3.612,2.625-1.379,4.246,3.612-2.625,3.613,2.625L26.6,43.327,30.21,40.7H25.745l-1.38-4.248L22.985,40.7Zm25.143,0,3.612,2.625-1.38,4.246,3.613-2.625,3.612,2.625-1.38-4.248L55.353,40.7H50.888l-1.38-4.248L48.128,40.7Zm25.143,0,3.612,2.625-1.38,4.246,3.613-2.625,3.612,2.625-1.38-4.248L80.5,40.7H76.03l-1.379-4.248L73.271,40.7Zm25.142,0,3.613,2.625-1.38,4.246,3.612-2.625,3.613,2.625-1.38-4.248,3.612-2.624h-4.465l-1.38-4.248L98.413,40.7Zm25.143,0,3.612,2.625-1.38,4.246,3.613-2.625,3.612,2.625-1.38-4.248,3.613-2.624h-4.465l-1.38-4.248-1.38,4.248ZM6.02,51.389l3.613,2.624L8.253,58.26l3.612-2.625,3.613,2.625L14.1,54.013l3.612-2.624H13.245l-1.38-4.248-1.38,4.248Zm25.143,0,3.612,2.624-1.38,4.248,3.613-2.625L40.62,58.26l-1.379-4.248,3.612-2.624H38.388l-1.38-4.248-1.38,4.248Zm25.143,0,3.612,2.624-1.38,4.248,3.613-2.625,3.612,2.625-1.38-4.248L68,51.389H63.531l-1.38-4.248-1.38,4.248Zm25.142,0,3.613,2.624-1.38,4.248,3.612-2.625,3.613,2.625-1.38-4.248,3.613-2.624H88.673l-1.38-4.248-1.379,4.248Zm25.143,0,3.612,2.624-1.379,4.248,3.612-2.625,3.613,2.625-1.38-4.248,3.612-2.624h-4.465l-1.38-4.248-1.38,4.248Zm25.143,0,3.612,2.624-1.38,4.248,3.613-2.625,3.612,2.625-1.38-4.248,3.613-2.624h-4.465l-1.38-4.248-1.38,4.248ZM6.256,72.6l3.612,2.625L8.488,79.47,12.1,76.846l3.612,2.625-1.38-4.248L17.946,72.6H13.481L12.1,68.352,10.721,72.6Zm25.142,0,3.613,2.625-1.38,4.248,3.612-2.625,3.613,2.625-1.38-4.248L43.088,72.6H38.623l-1.38-4.246L35.863,72.6Zm25.143,0,3.612,2.625L58.774,79.47l3.612-2.625L66,79.47l-1.38-4.248L68.231,72.6H63.766l-1.38-4.246L61.006,72.6Zm25.143,0L85.3,75.223l-1.38,4.248,3.613-2.625,3.612,2.625-1.379-4.248L93.374,72.6H88.909l-1.38-4.246L86.149,72.6Zm25.142,0,3.613,2.625-1.38,4.248,3.612-2.625,3.613,2.625-1.38-4.248,3.613-2.625h-4.466l-1.38-4.246L111.292,72.6Zm25.143,0,3.612,2.625L134.2,79.47l3.612-2.625,3.613,2.625-1.38-4.248,3.612-2.625h-4.465l-1.38-4.246-1.38,4.246ZM5.949,94.057l3.612,2.625-1.38,4.248L11.794,98.3l3.612,2.625-1.38-4.248,3.613-2.625H13.173l-1.379-4.246-1.38,4.246Zm25.142,0L34.7,96.682l-1.38,4.248L36.936,98.3l3.613,2.625-1.38-4.248,3.612-2.625H38.316l-1.38-4.246-1.38,4.246Zm25.143,0,3.612,2.625-1.379,4.248L62.079,98.3l3.613,2.625-1.38-4.248,3.612-2.625H63.459l-1.38-4.246L60.7,94.057Zm25.143,0,3.612,2.625-1.38,4.248L87.222,98.3l3.612,2.625-1.379-4.248,3.612-2.625H88.6l-1.38-4.246-1.38,4.246Zm25.142,0,3.613,2.625-1.38,4.248,3.612-2.625,3.613,2.625-1.38-4.248,3.613-2.625h-4.466l-1.38-4.246-1.379,4.246Zm25.143,0,3.612,2.625L133.9,100.93l3.612-2.625,3.613,2.625-1.38-4.248,3.612-2.625h-4.465l-1.38-4.246-1.38,4.246ZM18.594,61.887l3.612,2.625-1.379,4.246,3.612-2.625,3.613,2.625-1.38-4.246,3.612-2.625H25.82l-1.38-4.248-1.38,4.248Zm25.143,0,3.612,2.625-1.38,4.246,3.613-2.625,3.612,2.625-1.379-4.246,3.612-2.625H50.963l-1.38-4.248L48.2,61.887Zm25.143,0,3.612,2.625-1.38,4.246,3.613-2.625,3.612,2.625-1.38-4.246,3.613-2.625H76.106l-1.38-4.248-1.38,4.248Zm25.142,0,3.613,2.625-1.38,4.246,3.612-2.625,3.613,2.625-1.38-4.246,3.612-2.625h-4.465l-1.38-4.248-1.38,4.248Zm25.143,0,3.612,2.625-1.38,4.246,3.613-2.625,3.612,2.625-1.379-4.246,3.612-2.625h-4.465l-1.38-4.248-1.38,4.248ZM18.52,83.312l3.613,2.625-1.38,4.248,3.612-2.625,3.613,2.625L26.6,85.937l3.612-2.625H25.745l-1.38-4.246-1.38,4.246Zm25.143,0,3.612,2.625-1.38,4.248,3.613-2.625,3.613,2.625-1.38-4.248,3.612-2.625H50.888l-1.38-4.246-1.38,4.246Zm25.143,0,3.612,2.625-1.38,4.248,3.613-2.625,3.612,2.625-1.38-4.248L80.5,83.312H76.031l-1.38-4.246-1.38,4.246Zm25.142,0,3.613,2.625-1.38,4.248,3.612-2.625,3.613,2.625-1.38-4.248,3.612-2.625h-4.465l-1.38-4.246-1.38,4.246Zm25.143,0,3.612,2.625-1.38,4.248,3.613-2.625,3.612,2.625-1.379-4.248,3.612-2.625h-4.465l-1.38-4.246-1.38,4.246Z" transform="translate(1.487 0.934)" fill="#fff"/>
  </g>
</svg>
