<svg xmlns="http://www.w3.org/2000/svg" width="31" height="23" viewBox="0 0 31 23">
  <path id="Union_34" data-name="Union 34" d="M-1518.971,23a2.03,2.03,0,0,1-2.029-2.03,2.029,2.029,0,0,1,2.029-2.029h26.941A2.029,2.029,0,0,1-1490,20.971,2.029,2.029,0,0,1-1492.03,23Zm0-9.471A2.03,2.03,0,0,1-1521,11.5a2.029,2.029,0,0,1,2.029-2.03h26.941A2.029,2.029,0,0,1-1490,11.5a2.029,2.029,0,0,1-2.029,2.03Zm0-9.471A2.03,2.03,0,0,1-1521,2.03,2.03,2.03,0,0,1-1518.971,0h26.941A2.029,2.029,0,0,1-1490,2.03a2.029,2.029,0,0,1-2.029,2.03Z" transform="translate(1521)" fill="#363636"/>
</svg>
