<svg id="instagram" xmlns="http://www.w3.org/2000/svg" width="38" height="38" viewBox="0 0 38 38">
  <path id="Path_2117" data-name="Path 2117" d="M214.273,210.637A3.637,3.637,0,1,1,210.637,207,3.637,3.637,0,0,1,214.273,210.637Zm0,0" transform="translate(-191.637 -191.637)" fill="#fff"/>
  <path id="Path_2118" data-name="Path 2118" d="M152.934,138a3.613,3.613,0,0,0-2.071-2.071,6.036,6.036,0,0,0-2.026-.375c-1.151-.052-1.5-.064-4.409-.064s-3.258.011-4.409.063a6.04,6.04,0,0,0-2.026.376A3.614,3.614,0,0,0,135.924,138a6.038,6.038,0,0,0-.375,2.026c-.052,1.15-.064,1.5-.064,4.409s.011,3.258.064,4.409a6.036,6.036,0,0,0,.375,2.026,3.613,3.613,0,0,0,2.071,2.071,6.029,6.029,0,0,0,2.026.376c1.15.052,1.5.063,4.408.063s3.259-.011,4.409-.063a6.029,6.029,0,0,0,2.026-.376,3.613,3.613,0,0,0,2.071-2.071,6.042,6.042,0,0,0,.376-2.026c.052-1.151.064-1.5.064-4.409s-.011-3.258-.064-4.409A6.029,6.029,0,0,0,152.934,138Zm-8.505,12.037a5.6,5.6,0,1,1,5.6-5.6A5.6,5.6,0,0,1,144.429,150.035Zm5.824-10.117a1.309,1.309,0,1,1,1.309-1.309A1.309,1.309,0,0,1,150.253,139.918Zm0,0" transform="translate(-125.429 -125.433)" fill="#fff"/>
  <path id="Path_2119" data-name="Path 2119" d="M19,0A19,19,0,1,0,38,19,19,19,0,0,0,19,0ZM29.844,23.5a8,8,0,0,1-.507,2.648,5.579,5.579,0,0,1-3.191,3.191,8.01,8.01,0,0,1-2.648.507c-1.163.053-1.535.066-4.5.066s-3.335-.013-4.5-.066a8.01,8.01,0,0,1-2.648-.507,5.579,5.579,0,0,1-3.191-3.191A8,8,0,0,1,8.156,23.5C8.1,22.335,8.09,21.963,8.09,19s.012-3.335.066-4.5a8.005,8.005,0,0,1,.507-2.648,5.582,5.582,0,0,1,3.191-3.191A8.012,8.012,0,0,1,14.5,8.156C15.665,8.1,16.037,8.09,19,8.09s3.335.013,4.5.066a8.014,8.014,0,0,1,2.648.506,5.58,5.58,0,0,1,3.191,3.191,8,8,0,0,1,.507,2.648c.053,1.163.066,1.535.066,4.5S29.9,22.335,29.844,23.5Zm0,0" fill="#fff"/>
</svg>
