<svg id="language" xmlns="http://www.w3.org/2000/svg" width="23" height="23" viewBox="0 0 23 23">
  <g id="Group_4680" data-name="Group 4680" transform="translate(9.762 5.286)">
    <g id="Group_4679" data-name="Group 4679">
      <path id="Path_2120" data-name="Path 2120" d="M219.414,117.679a13.016,13.016,0,0,0-2.093,5.22H221.5A13.006,13.006,0,0,0,219.414,117.679Z" transform="translate(-217.321 -117.679)" fill="#8b8b8b"/>
    </g>
  </g>
  <g id="Group_4682" data-name="Group 4682" transform="translate(5.442 4.921)">
    <g id="Group_4681" data-name="Group 4681">
      <path id="Path_2121" data-name="Path 2121" d="M121.152,115.135h2.9a13.676,13.676,0,0,1,2.07-5.585A6.468,6.468,0,0,0,121.152,115.135Z" transform="translate(-121.152 -109.55)" fill="#8b8b8b"/>
    </g>
  </g>
  <g id="Group_4684" data-name="Group 4684" transform="translate(13.294 4.92)">
    <g id="Group_4683" data-name="Group 4683">
      <path id="Path_2122" data-name="Path 2122" d="M295.934,109.518a13.724,13.724,0,0,1,2.06,5.587h2.917A6.468,6.468,0,0,0,295.934,109.518Z" transform="translate(-295.934 -109.518)" fill="#8b8b8b"/>
    </g>
  </g>
  <g id="Group_4686" data-name="Group 4686" transform="translate(9.762 11.916)">
    <g id="Group_4685" data-name="Group 4685">
      <path id="Path_2123" data-name="Path 2123" d="M217.321,265.27a12.966,12.966,0,0,0,2.092,5.22,13.052,13.052,0,0,0,2.082-5.22Z" transform="translate(-217.321 -265.27)" fill="#8b8b8b"/>
    </g>
  </g>
  <g id="Group_4688" data-name="Group 4688" transform="translate(5.442 11.916)">
    <g id="Group_4687" data-name="Group 4687">
      <path id="Path_2124" data-name="Path 2124" d="M124.055,265.27h-2.9a6.469,6.469,0,0,0,4.972,5.585A13.677,13.677,0,0,1,124.055,265.27Z" transform="translate(-121.152 -265.27)" fill="#8b8b8b"/>
    </g>
  </g>
  <g id="Group_4690" data-name="Group 4690">
    <g id="Group_4689" data-name="Group 4689">
      <path id="Path_2125" data-name="Path 2125" d="M19.7,3.3A11.26,11.26,0,0,0,.543,10.075a11.315,11.315,0,0,0,1.5,6.9L0,23l6.02-2.04A11.264,11.264,0,0,0,19.7,19.221,11.26,11.26,0,0,0,19.7,3.3ZM11.857,19.074a7.863,7.863,0,1,1,7.863-7.863A7.872,7.872,0,0,1,11.857,19.074Z" transform="translate(0 0)" fill="#8b8b8b"/>
    </g>
  </g>
  <g id="Group_4692" data-name="Group 4692" transform="translate(13.294 11.916)">
    <g id="Group_4691" data-name="Group 4691">
      <path id="Path_2126" data-name="Path 2126" d="M297.994,265.27a13.722,13.722,0,0,1-2.06,5.586,6.468,6.468,0,0,0,4.977-5.586Z" transform="translate(-295.934 -265.27)" fill="#8b8b8b"/>
    </g>
  </g>
</svg>
