<svg xmlns="http://www.w3.org/2000/svg" width="38.182" height="38.182" viewBox="0 0 38.182 38.182">
  <path id="linkedin" d="M19.091,0A19.091,19.091,0,1,0,38.182,19.091,19.093,19.093,0,0,0,19.091,0ZM13.543,28.86H8.894V14.872h4.65Zm-2.325-15.9h-.03a2.423,2.423,0,1,1,.061-4.833,2.424,2.424,0,1,1-.031,4.833Zm19.09,15.9H25.659V21.377c0-1.881-.673-3.163-2.355-3.163a2.545,2.545,0,0,0-2.385,1.7,3.184,3.184,0,0,0-.153,1.135V28.86H16.116s.061-12.676,0-13.988h4.649v1.981a4.616,4.616,0,0,1,4.19-2.309c3.059,0,5.353,2,5.353,6.3Zm0,0" fill="#fff"/>
</svg>
