<svg xmlns="http://www.w3.org/2000/svg" viewBox="0 0 233.53 68.06"><defs><style>.cls-1{fill:#eb4c36;}.cls-2{fill:#231f20;}</style></defs><title>Asset 4</title><g id="Layer_2" data-name="Layer 2"><g id="Layer_1-2" data-name="Layer 1"><path class="cls-1" d="M63.66,25.69H30.17V4.38H63.42l-.16.85a12.75,12.75,0,0,1-6.11,8.18,18.07,18.07,0,0,1-7.74,2.07H44.13a2.1,2.1,0,0,0,0,4.19h6.62C56.84,19,65.94,16.18,68,3.85h0S68.84,0,63.64,0H25.79V25.69H4.46C-.75,25.69,0,29.54,0,29.54h0c2.1,12.33,11.2,15.17,17.3,15.82h4.09a2.1,2.1,0,0,0,0-4.2H18.68A17.85,17.85,0,0,1,11,39.09a12.71,12.71,0,0,1-6.12-8.18l-.16-.84H25.79v33.4s0,.09,0,.13h0c0,5.21,3.85,4.42,3.85,4.42h0C42,65.9,44.8,56.79,45.44,50.69V45.36h5.33c6.1-.65,15.19-3.49,17.3-15.82h0S68.86,25.69,63.66,25.69ZM68,3.85h0ZM.06,29.54h0Zm63.23,1.37a12.71,12.71,0,0,1-6.12,8.18,17.89,17.89,0,0,1-7.74,2.07H47.52A20.17,20.17,0,0,1,40,39.37h0l-.05,0a18.8,18.8,0,0,1,1.34,5.82v4.19a18,18,0,0,1-2.06,7.75A12.71,12.71,0,0,1,31,63.22l-.85.16V30.07H63.45Z"/><path class="cls-2" d="M94.54,27H89.26V25.08H102V27H96.71V40.49H94.54Z"/><path class="cls-2" d="M113.37,35.36h-9.46a3.94,3.94,0,0,0,4.22,3.41,4.34,4.34,0,0,0,3.37-1.41l1.17,1.37a5.88,5.88,0,0,1-4.6,1.89c-3.77,0-6.27-2.49-6.27-6a5.71,5.71,0,0,1,5.85-5.94c3.37,0,5.76,2.42,5.76,6C113.41,34.9,113.39,35.16,113.37,35.36Zm-9.46-1.52h7.48a3.76,3.76,0,0,0-7.48,0Z"/><path class="cls-2" d="M115.26,34.65a5.83,5.83,0,0,1,6.16-5.94,5.19,5.19,0,0,1,4.75,2.49l-1.6,1a3.65,3.65,0,0,0-3.17-1.67,3.87,3.87,0,0,0-4,4.09,3.87,3.87,0,0,0,4,4.12,3.65,3.65,0,0,0,3.17-1.67l1.6,1a5.21,5.21,0,0,1-4.75,2.51A5.84,5.84,0,0,1,115.26,34.65Z"/><path class="cls-2" d="M139.81,33.77v6.72H137.7V34c0-2.29-1.14-3.41-3.14-3.41-2.25,0-3.7,1.34-3.7,3.87v6h-2.11V24.16h2.11v6.31A5.06,5.06,0,0,1,135,28.71C137.81,28.71,139.81,30.34,139.81,33.77Z"/><path class="cls-2" d="M152.15,27v5.37h7.73v1.89h-7.73v6.23H150V25.08h10.87V27Z"/><path class="cls-2" d="M172.44,33.44v7.05h-2V39a4.35,4.35,0,0,1-3.83,1.67c-2.64,0-4.31-1.41-4.31-3.43s1.21-3.42,4.68-3.42h3.35v-.41c0-1.79-1-2.82-3.13-2.82a5.88,5.88,0,0,0-3.69,1.25l-.88-1.58a7.74,7.74,0,0,1,4.82-1.5C170.64,28.71,172.44,30.25,172.44,33.44Zm-2.11,3.48V35.29h-3.26c-2.09,0-2.68.82-2.68,1.81,0,1.16,1,1.89,2.57,1.89A3.4,3.4,0,0,0,170.33,36.92Z"/><path class="cls-2" d="M174.88,39.25l.88-1.67a7.43,7.43,0,0,0,4.09,1.21c2,0,2.77-.59,2.77-1.58,0-2.62-7.37-.35-7.37-5,0-2.09,1.87-3.5,4.87-3.5a8.48,8.48,0,0,1,4.24,1.06l-.9,1.67a6.11,6.11,0,0,0-3.37-.92c-1.84,0-2.75.68-2.75,1.6,0,2.76,7.4.51,7.4,5,0,2.12-1.94,3.46-5,3.46A8.42,8.42,0,0,1,174.88,39.25Z"/><path class="cls-2" d="M198.44,33.77v6.72h-2.11V34c0-2.29-1.14-3.41-3.14-3.41-2.25,0-3.7,1.34-3.7,3.87v6h-2.11V24.16h2.11v6.31a5.06,5.06,0,0,1,4.11-1.76C196.44,28.71,198.44,30.34,198.44,33.77Z"/><path class="cls-2" d="M202,25.22a1.4,1.4,0,0,1,1.43-1.39,1.36,1.36,0,0,1,1.43,1.34,1.43,1.43,0,0,1-2.86,0Zm.38,3.6h2.11V40.49h-2.11Z"/><path class="cls-2" d="M207.42,34.65a6.06,6.06,0,1,1,6.07,6A5.8,5.8,0,0,1,207.42,34.65Zm10,0a3.93,3.93,0,1,0-7.86,0,3.93,3.93,0,1,0,7.86,0Z"/><path class="cls-2" d="M233.53,33.77v6.72h-2.11V34c0-2.29-1.14-3.41-3.15-3.41-2.24,0-3.69,1.34-3.69,3.87v6h-2.12V28.82h2v1.76a5,5,0,0,1,4.2-1.87C231.53,28.71,233.53,30.34,233.53,33.77Z"/></g></g></svg>