<svg xmlns="http://www.w3.org/2000/svg" viewBox="0 0 388.62 109.28"><defs><style>.cls-1{fill:#eb4c36;}.cls-2{fill:#fff;}</style></defs><title>Asset 14</title><g id="Layer_2" data-name="Layer 2"><g id="Layer_1-2" data-name="Layer 1"><rect class="cls-1" width="109.28" height="109.28"/><path class="cls-2" d="M81.65,46.74H50V26.58H81.42l-.15.81a12.07,12.07,0,0,1-5.78,7.74,16.93,16.93,0,0,1-7.33,1.95h-5a2,2,0,0,0,0,4h6.26c5.77-.61,14.37-3.3,16.37-15h0s.74-3.64-4.18-3.64H45.82v24.3H25.63c-4.93,0-4.18,3.65-4.18,3.65h0c2,11.67,10.6,14.36,16.37,15H41.7a2,2,0,0,0,0-4H39.09a17,17,0,0,1-7.32-2A12.08,12.08,0,0,1,26,51.69l-.15-.8h20V82.62h0c0,4.93,3.64,4.18,3.64,4.18h0c11.65-2,14.34-10.61,14.95-16.38v-5h5c5.76-.61,14.37-3.3,16.36-15h0S86.57,46.74,81.65,46.74Zm4.08-20.66h0ZM21.47,50.39h0Zm59.83,1.3a12.08,12.08,0,0,1-5.79,7.74,17,17,0,0,1-7.32,2H66.38a19.2,19.2,0,0,1-7.16-1.69h0l0-.05a18,18,0,0,1,1.27,5.52v4a17.1,17.1,0,0,1-2,7.33,12,12,0,0,1-7.73,5.79l-.8.16V50.89H81.45Z"/><path class="cls-2" d="M148.32,45.89h-9.13V42.58h22v3.31h-9.13V69.21h-3.76Z"/><path class="cls-2" d="M180.88,60.35H164.52c.46,3.54,3.31,5.89,7.3,5.89a7.54,7.54,0,0,0,5.83-2.43l2,2.36a10.11,10.11,0,0,1-7.95,3.27c-6.5,0-10.84-4.3-10.84-10.31A9.88,9.88,0,0,1,171,48.86c5.82,0,10,4.18,10,10.38A10.84,10.84,0,0,1,180.88,60.35Zm-16.36-2.63h12.94a6.51,6.51,0,0,0-12.94,0Z"/><path class="cls-2" d="M184.15,59.13c0-6,4.45-10.27,10.65-10.27,3.61,0,6.62,1.48,8.21,4.3L200.24,55a6.29,6.29,0,0,0-5.48-2.89,6.68,6.68,0,0,0-6.92,7.07c0,4.38,3,7.11,6.92,7.11a6.29,6.29,0,0,0,5.48-2.89L203,65.1c-1.59,2.82-4.6,4.34-8.21,4.34C188.6,69.44,184.15,65.14,184.15,59.13Z"/><path class="cls-2" d="M226.6,57.61v11.6h-3.66V58c0-4-2-5.9-5.43-5.9-3.89,0-6.4,2.32-6.4,6.7V69.21h-3.65V41h3.65V51.9a8.77,8.77,0,0,1,7.12-3C223.13,48.86,226.6,51.67,226.6,57.61Z"/><path class="cls-2" d="M247.93,45.89v9.28h13.35v3.28H247.93V69.21h-3.8V42.58h18.79v3.31Z"/><path class="cls-2" d="M283,57V69.21h-3.46V66.55c-1.22,1.82-3.46,2.89-6.62,2.89-4.56,0-7.46-2.43-7.46-5.93,0-3.24,2.1-5.9,8.11-5.9h5.78v-.72c0-3.08-1.79-4.87-5.4-4.87a10.14,10.14,0,0,0-6.39,2.17L266,51.45a13.37,13.37,0,0,1,8.33-2.59C279.88,48.86,283,51.52,283,57Zm-3.65,6V60.23h-5.63c-3.61,0-4.64,1.41-4.64,3.12,0,2,1.67,3.28,4.45,3.28S278.44,65.37,279.35,63.05Z"/><path class="cls-2" d="M287.22,67.08l1.52-2.89a12.93,12.93,0,0,0,7.08,2.09c3.38,0,4.79-1,4.79-2.74,0-4.52-12.74-.6-12.74-8.63,0-3.62,3.23-6,8.4-6a14.6,14.6,0,0,1,7.35,1.83l-1.56,2.89a10.53,10.53,0,0,0-5.82-1.6c-3.2,0-4.76,1.18-4.76,2.78,0,4.75,12.78.87,12.78,8.71,0,3.65-3.34,6-8.71,6C292.2,69.44,288.89,68.41,287.22,67.08Z"/><path class="cls-2" d="M328,57.61v11.6h-3.65V58c0-4-2-5.9-5.44-5.9-3.88,0-6.39,2.32-6.39,6.7V69.21h-3.66V41h3.66V51.9a8.73,8.73,0,0,1,7.11-3C324.5,48.86,328,51.67,328,57.61Z"/><path class="cls-2" d="M334.08,42.81a2.4,2.4,0,0,1,2.47-2.4,2.38,2.38,0,1,1-2.47,2.4Zm.65,6.24h3.65V69.21h-3.65Z"/><path class="cls-2" d="M343.47,59.13c0-6,4.45-10.27,10.5-10.27s10.46,4.26,10.46,10.27S360,69.44,354,69.44,343.47,65.14,343.47,59.13Zm17.27,0c0-4.3-2.89-7.07-6.77-7.07s-6.81,2.77-6.81,7.07,2.93,7.11,6.81,7.11S360.74,63.43,360.74,59.13Z"/><path class="cls-2" d="M388.62,57.61v11.6H385V58c0-4-2-5.9-5.44-5.9-3.88,0-6.39,2.32-6.39,6.7V69.21h-3.65V49.05H373v3c1.48-2.05,4.07-3.23,7.26-3.23C385.16,48.86,388.62,51.67,388.62,57.61Z"/></g></g></svg>