<svg id="_019---Voicemail" data-name="019---Voicemail" xmlns="http://www.w3.org/2000/svg" width="17.959" height="17.959" viewBox="0 0 17.959 17.959">
  <path id="Shape" d="M8.442,10.574A7.256,7.256,0,0,1,6.251,6.455a.616.616,0,0,1,.177-.516L7.817,4.551A.62.62,0,0,0,7.9,3.784L5.693.351a.62.62,0,0,0-.8-.226L1.341,1.8A.617.617,0,0,0,1,2.412,17.157,17.157,0,0,0,6.224,12.791,17.152,17.152,0,0,0,16.6,18.015a.617.617,0,0,0,.616-.341l1.672-3.549a.62.62,0,0,0-.225-.8l-3.433-2.21a.62.62,0,0,0-.767.087l-1.388,1.389a.616.616,0,0,1-.516.177A7.256,7.256,0,0,1,8.442,10.574Z" transform="translate(-0.997 -0.059)" fill="#5f5655"/>
</svg>
