<svg xmlns="http://www.w3.org/2000/svg" xmlns:xlink="http://www.w3.org/1999/xlink" width="494.6" height="444.73" viewBox="0 0 494.6 444.73">
  <defs>
    <linearGradient id="linear-gradient" x1="0.5" y1="1.188" x2="0.5" y2="-0.559" gradientUnits="objectBoundingBox">
      <stop offset="0" stop-color="#5d5dd7"/>
      <stop offset="1" stop-color="#8eb6f6"/>
    </linearGradient>
    <linearGradient id="linear-gradient-2" x1="0.819" y1="7.393" x2="0.232" y2="-4.815" gradientUnits="objectBoundingBox">
      <stop offset="0" stop-color="#de5d83"/>
      <stop offset="1" stop-color="#eaab71"/>
    </linearGradient>
    <linearGradient id="linear-gradient-3" x1="0.5" y1="1.334" x2="0.5" y2="0.193" gradientUnits="objectBoundingBox">
      <stop offset="0" stop-color="#ebb02a"/>
      <stop offset="0.17" stop-color="#ecb83c"/>
      <stop offset="0.515" stop-color="#f0c75c"/>
      <stop offset="0.804" stop-color="#f2d070"/>
      <stop offset="1" stop-color="#f3d478"/>
    </linearGradient>
    <filter id="Rectangle_1199" x="124.75" y="138.232" width="98.591" height="149.226" filterUnits="userSpaceOnUse">
      <feOffset dx="2" dy="3" input="SourceAlpha"/>
      <feGaussianBlur stdDeviation="2" result="blur"/>
      <feFlood flood-color="#5055d5" flood-opacity="0.502"/>
      <feComposite operator="in" in2="blur"/>
      <feComposite in="SourceGraphic"/>
    </filter>
    <linearGradient id="linear-gradient-6" x1="0.5" y1="1.552" x2="0.5" y2="0.457" gradientUnits="objectBoundingBox">
      <stop offset="0" stop-color="#8066ea"/>
      <stop offset="1" stop-color="#c28bf7"/>
    </linearGradient>
    <linearGradient id="linear-gradient-7" x1="0.5" y1="1.636" x2="0.5" y2="0.296" gradientUnits="objectBoundingBox">
      <stop offset="0" stop-color="#ebb02a"/>
      <stop offset="1" stop-color="#f3d478"/>
    </linearGradient>
    <linearGradient id="linear-gradient-8" x1="0.82" y1="2.275" x2="0.316" y2="-0.521" xlink:href="#linear-gradient-2"/>
    <linearGradient id="linear-gradient-9" x1="0.829" y1="2.23" x2="0.449" y2="0.23" xlink:href="#linear-gradient-7"/>
    <filter id="Path_6951" x="222.296" y="138.233" width="58.49" height="80.614" filterUnits="userSpaceOnUse">
      <feOffset dx="2" dy="3" input="SourceAlpha"/>
      <feGaussianBlur stdDeviation="2" result="blur-2"/>
      <feFlood flood-color="#5055d5" flood-opacity="0.502"/>
      <feComposite operator="in" in2="blur-2"/>
      <feComposite in="SourceGraphic"/>
    </filter>
    <linearGradient id="linear-gradient-10" x1="0.5" y1="1.382" x2="0.5" y2="-0.097" xlink:href="#linear-gradient-2"/>
    <linearGradient id="linear-gradient-11" x1="0.5" y1="1.382" x2="0.5" y2="-0.097" xlink:href="#linear-gradient-7"/>
    <filter id="Path_6955" x="275.395" y="138.233" width="58.49" height="80.614" filterUnits="userSpaceOnUse">
      <feOffset dx="2" dy="3" input="SourceAlpha"/>
      <feGaussianBlur stdDeviation="2" result="blur-3"/>
      <feFlood flood-color="#5055d5" flood-opacity="0.502"/>
      <feComposite operator="in" in2="blur-3"/>
      <feComposite in="SourceGraphic"/>
    </filter>
    <linearGradient id="linear-gradient-12" x1="0.5" y1="1.291" x2="0.5" y2="0.111" xlink:href="#linear-gradient-6"/>
    <linearGradient id="linear-gradient-13" x1="0.5" y1="1.382" x2="0.5" y2="-0.097" gradientUnits="objectBoundingBox">
      <stop offset="0" stop-color="#b666ea"/>
      <stop offset="1" stop-color="#e9abdc"/>
    </linearGradient>
    <linearGradient id="linear-gradient-14" x1="0.5" y1="1.205" x2="0.5" y2="-0.062" gradientUnits="objectBoundingBox">
      <stop offset="0" stop-color="#8886fa"/>
      <stop offset="1" stop-color="#8886fa" stop-opacity="0.302"/>
    </linearGradient>
    <filter id="Path_6959" x="328.494" y="138.233" width="58.49" height="80.614" filterUnits="userSpaceOnUse">
      <feOffset dx="2" dy="3" input="SourceAlpha"/>
      <feGaussianBlur stdDeviation="2" result="blur-4"/>
      <feFlood flood-color="#5055d5" flood-opacity="0.502"/>
      <feComposite operator="in" in2="blur-4"/>
      <feComposite in="SourceGraphic"/>
    </filter>
    <filter id="Path_6960" x="336.921" y="113.337" width="68.883" height="95.954" filterUnits="userSpaceOnUse">
      <feOffset dx="2" dy="3" input="SourceAlpha"/>
      <feGaussianBlur stdDeviation="2" result="blur-5"/>
      <feFlood flood-color="#5055d5" flood-opacity="0.502"/>
      <feComposite operator="in" in2="blur-5"/>
      <feComposite in="SourceGraphic"/>
    </filter>
    <linearGradient id="linear-gradient-15" x1="0.5" y1="1.718" x2="0.5" y2="-0.098" gradientUnits="objectBoundingBox">
      <stop offset="0" stop-color="#80c3e7"/>
      <stop offset="1" stop-color="#a3ffec"/>
    </linearGradient>
    <linearGradient id="linear-gradient-16" x1="0.5" y1="1.382" x2="0.5" y2="-0.097" xlink:href="#linear-gradient-15"/>
    <linearGradient id="linear-gradient-17" x1="0.5" y1="1.842" x2="0.5" y2="-0.314" xlink:href="#linear-gradient-14"/>
    <filter id="Rectangle_1206" x="222.299" y="221.569" width="164.685" height="65.878" filterUnits="userSpaceOnUse">
      <feOffset dx="2" dy="3" input="SourceAlpha"/>
      <feGaussianBlur stdDeviation="2" result="blur-6"/>
      <feFlood flood-color="#5055d5" flood-opacity="0.502"/>
      <feComposite operator="in" in2="blur-6"/>
      <feComposite in="SourceGraphic"/>
    </filter>
    <linearGradient id="linear-gradient-18" x1="1.075" y1="4.697" x2="0.197" y2="-1.708" xlink:href="#linear-gradient-7"/>
    <linearGradient id="linear-gradient-19" x1="0.725" y1="1.938" x2="0.329" y2="0.188" xlink:href="#linear-gradient-15"/>
    <linearGradient id="linear-gradient-20" x1="0.5" y1="1.303" x2="0.5" y2="-1.23" gradientUnits="objectBoundingBox">
      <stop offset="0" stop-color="#fad386"/>
      <stop offset="1" stop-color="#faeb86" stop-opacity="0.302"/>
    </linearGradient>
    <filter id="Rectangle_1211" x="0" y="96.617" width="103.566" height="141.303" filterUnits="userSpaceOnUse">
      <feOffset dx="2" dy="4" input="SourceAlpha"/>
      <feGaussianBlur stdDeviation="2" result="blur-7"/>
      <feFlood flood-color="#dc0ecf" flood-opacity="0.502"/>
      <feComposite operator="in" in2="blur-7"/>
      <feComposite in="SourceGraphic"/>
    </filter>
    <linearGradient id="linear-gradient-21" x1="0.667" y1="2.553" x2="0.446" y2="-0.168" xlink:href="#linear-gradient-15"/>
    <linearGradient id="linear-gradient-22" x1="1.056" y1="1.284" x2="0.14" y2="-0.008" gradientUnits="objectBoundingBox">
      <stop offset="0" stop-color="#df6891"/>
      <stop offset="1" stop-color="#df8ce0"/>
    </linearGradient>
    <linearGradient id="linear-gradient-23" x1="2.864" y1="3.157" x2="-1.276" y2="-1.148" xlink:href="#linear-gradient-22"/>
    <linearGradient id="linear-gradient-24" x1="0.5" y1="1.185" x2="0.5" y2="0.185" gradientUnits="objectBoundingBox">
      <stop offset="0" stop-color="#fc87f8"/>
      <stop offset="1" stop-color="#ff3cff" stop-opacity="0.302"/>
    </linearGradient>
    <filter id="Rectangle_1216" x="97.879" y="314.685" width="212.861" height="80.172" filterUnits="userSpaceOnUse">
      <feOffset dx="2" dy="4" input="SourceAlpha"/>
      <feGaussianBlur stdDeviation="2" result="blur-8"/>
      <feFlood flood-color="#e82ac8" flood-opacity="0.502"/>
      <feComposite operator="in" in2="blur-8"/>
      <feComposite in="SourceGraphic"/>
    </filter>
    <linearGradient id="linear-gradient-25" x1="0.5" y1="1.311" x2="0.5" y2="0.078" xlink:href="#linear-gradient-22"/>
    <filter id="Rectangle_1217" x="114.32" y="327.026" width="55.802" height="55.802" filterUnits="userSpaceOnUse">
      <feOffset dx="2" dy="4" input="SourceAlpha"/>
      <feGaussianBlur stdDeviation="2" result="blur-9"/>
      <feFlood flood-color="#cf64d8" flood-opacity="0.502"/>
      <feComposite operator="in" in2="blur-9"/>
      <feComposite in="SourceGraphic"/>
    </filter>
    <linearGradient id="linear-gradient-26" x1="0.5" y1="1.311" x2="0.5" y2="0.078" xlink:href="#linear-gradient-2"/>
    <filter id="Rectangle_1218" x="173.95" y="327.026" width="55.802" height="55.802" filterUnits="userSpaceOnUse">
      <feOffset dx="2" dy="4" input="SourceAlpha"/>
      <feGaussianBlur stdDeviation="2" result="blur-10"/>
      <feFlood flood-color="#bf6e51" flood-opacity="0.502"/>
      <feComposite operator="in" in2="blur-10"/>
      <feComposite in="SourceGraphic"/>
    </filter>
    <linearGradient id="linear-gradient-27" x1="0.5" y1="1.311" x2="0.5" y2="0.078" xlink:href="#linear-gradient-15"/>
    <filter id="Rectangle_1219" x="234.979" y="327.026" width="55.802" height="55.802" filterUnits="userSpaceOnUse">
      <feOffset dx="2" dy="4" input="SourceAlpha"/>
      <feGaussianBlur stdDeviation="2" result="blur-11"/>
      <feFlood flood-color="#85d1d4" flood-opacity="0.502"/>
      <feComposite operator="in" in2="blur-11"/>
      <feComposite in="SourceGraphic"/>
    </filter>
    <linearGradient id="linear-gradient-28" x1="0.5" y1="1.303" x2="0.5" y2="-1.23" gradientUnits="objectBoundingBox">
      <stop offset="0" stop-color="#f386fa"/>
      <stop offset="1" stop-color="#e0f" stop-opacity="0.302"/>
    </linearGradient>
    <filter id="Rectangle_1220" x="417.67" y="73.179" width="76.93" height="59.16" filterUnits="userSpaceOnUse">
      <feOffset dx="2" dy="4" input="SourceAlpha"/>
      <feGaussianBlur stdDeviation="2" result="blur-12"/>
      <feFlood flood-color="#fd39f6" flood-opacity="0.502"/>
      <feComposite operator="in" in2="blur-12"/>
      <feComposite in="SourceGraphic"/>
    </filter>
    <linearGradient id="linear-gradient-29" x1="0.5" y1="1.303" x2="0.5" y2="-1.23" gradientUnits="objectBoundingBox">
      <stop offset="0" stop-color="#db86fa"/>
      <stop offset="1" stop-color="#ff9ad9" stop-opacity="0.302"/>
    </linearGradient>
    <filter id="Path_7022" x="201.196" y="0" width="116.119" height="91.666" filterUnits="userSpaceOnUse">
      <feOffset dx="2" dy="4" input="SourceAlpha"/>
      <feGaussianBlur stdDeviation="2" result="blur-13"/>
      <feFlood flood-color="#cc50d5" flood-opacity="0.502"/>
      <feComposite operator="in" in2="blur-13"/>
      <feComposite in="SourceGraphic"/>
    </filter>
    <linearGradient id="linear-gradient-30" x1="0.5" y1="-0.122" x2="0.5" y2="1.402" gradientUnits="objectBoundingBox">
      <stop offset="0" stop-color="#beabfb"/>
      <stop offset="1" stop-color="#beabfb" stop-opacity="0.102"/>
    </linearGradient>
    <linearGradient id="linear-gradient-31" x1="0.741" y1="0.968" x2="0.356" y2="0.231" xlink:href="#linear-gradient-7"/>
    <linearGradient id="linear-gradient-36" x1="0.243" y1="0.703" x2="0.445" y2="0.503" gradientUnits="objectBoundingBox">
      <stop offset="0" stop-color="#e098b1"/>
      <stop offset="1" stop-color="#ecb4c0"/>
    </linearGradient>
    <linearGradient id="linear-gradient-37" x1="0.517" y1="0.62" x2="0.572" y2="1.158" gradientUnits="objectBoundingBox">
      <stop offset="0" stop-color="#d1719e"/>
      <stop offset="1" stop-color="#e098b1" stop-opacity="0.302"/>
    </linearGradient>
    <linearGradient id="linear-gradient-38" x1="0.403" y1="0.748" x2="0.498" y2="0.437" gradientUnits="objectBoundingBox">
      <stop offset="0" stop-color="#e9a8bc"/>
      <stop offset="1" stop-color="#f0c6c7"/>
    </linearGradient>
    <linearGradient id="linear-gradient-39" x1="0.664" y1="0.011" x2="0.108" y2="1.479" xlink:href="#linear-gradient-37"/>
    <linearGradient id="linear-gradient-40" x1="0.548" y1="0.497" x2="-0.062" y2="0.505" gradientUnits="objectBoundingBox">
      <stop offset="0" stop-color="#2f2b86"/>
      <stop offset="1" stop-color="#4141bb"/>
    </linearGradient>
    <linearGradient id="linear-gradient-41" x1="0.249" y1="0.557" x2="-0.113" y2="0.792" gradientUnits="objectBoundingBox">
      <stop offset="0" stop-color="#2f2b86"/>
      <stop offset="1" stop-color="#2f2b86" stop-opacity="0.302"/>
    </linearGradient>
    <linearGradient id="linear-gradient-42" x1="0.909" y1="0.477" x2="0.27" y2="0.541" gradientUnits="objectBoundingBox">
      <stop offset="0" stop-color="#3535a0"/>
      <stop offset="1" stop-color="#4a4ad0"/>
    </linearGradient>
    <linearGradient id="linear-gradient-43" x1="0" y1="0.5" x2="1" y2="0.5" xlink:href="#linear-gradient-41"/>
    <linearGradient id="linear-gradient-44" x1="0.557" y1="0.711" x2="0.432" y2="0.041" gradientUnits="objectBoundingBox">
      <stop offset="0" stop-color="#3535a0"/>
      <stop offset="1" stop-color="#796ad9"/>
    </linearGradient>
    <linearGradient id="linear-gradient-45" x1="0.549" y1="0.796" x2="0.387" y2="-0.177" xlink:href="#linear-gradient-44"/>
    <linearGradient id="linear-gradient-46" x1="0.997" y1="0.702" x2="0.107" y2="0.456" xlink:href="#linear-gradient-38"/>
    <linearGradient id="linear-gradient-47" x1="0.596" y1="0.138" x2="0.19" y2="1.106" xlink:href="#linear-gradient-37"/>
    <linearGradient id="linear-gradient-48" x1="0.865" y1="0.582" x2="0.372" y2="0.424" gradientUnits="objectBoundingBox">
      <stop offset="0" stop-color="#ebb040"/>
      <stop offset="1" stop-color="#f3d478"/>
    </linearGradient>
    <linearGradient id="linear-gradient-49" x1="-0.075" y1="-4.348" x2="3.112" y2="22.153" gradientUnits="objectBoundingBox">
      <stop offset="0" stop-color="#f3d35b"/>
      <stop offset="1" stop-color="#ebb02a" stop-opacity="0.302"/>
    </linearGradient>
    <linearGradient id="linear-gradient-50" x1="-0.825" y1="0.023" x2="6.518" y2="2.679" xlink:href="#linear-gradient-49"/>
    <linearGradient id="linear-gradient-51" x1="-0.843" y1="0.025" x2="6.594" y2="2.67" xlink:href="#linear-gradient-49"/>
    <linearGradient id="linear-gradient-52" x1="-0.308" y1="-0.312" x2="3.725" y2="4.434" xlink:href="#linear-gradient-49"/>
    <linearGradient id="linear-gradient-53" x1="-0.095" y1="-2.655" x2="3.232" y2="14.421" xlink:href="#linear-gradient-49"/>
    <linearGradient id="linear-gradient-54" x1="-0.123" y1="-2.216" x2="3.326" y2="12.716" xlink:href="#linear-gradient-49"/>
    <linearGradient id="linear-gradient-55" x1="-0.097" y1="-2.88" x2="3.204" y2="15.061" xlink:href="#linear-gradient-49"/>
    <linearGradient id="linear-gradient-56" x1="0.586" y1="0.102" x2="-2.507" y2="3.883" gradientUnits="objectBoundingBox">
      <stop offset="0" stop-color="#e27a1e"/>
      <stop offset="1" stop-color="#e27a1e" stop-opacity="0.302"/>
    </linearGradient>
    <linearGradient id="linear-gradient-57" x1="-0.241" y1="0.927" x2="0.764" y2="0.191" gradientUnits="objectBoundingBox">
      <stop offset="0" stop-color="#f9ec8a"/>
      <stop offset="1" stop-color="#ebb02a" stop-opacity="0.302"/>
    </linearGradient>
  </defs>
  <g id="Group_6854" data-name="Group 6854" transform="translate(-340.525 -55.259)">
    <g id="Group_6820" data-name="Group 6820" transform="translate(449.336 156.238)">
      <g id="Group_6795" data-name="Group 6795">
        <path id="Path_6938" data-name="Path 6938" d="M711.206,163.47V345.65a5.815,5.815,0,0,1-5.816,5.816H431.272a5.815,5.815,0,0,1-5.816-5.816V163.47A13.345,13.345,0,0,1,438.8,150.127H697.865A13.345,13.345,0,0,1,711.206,163.47Z" transform="translate(-425.456 -150.127)" fill="url(#linear-gradient)" style="mix-blend-mode: screen;isolation: isolate"/>
        <path id="Path_6939" data-name="Path 6939" d="M711.206,163.47v2.694H425.456V163.47A13.345,13.345,0,0,1,438.8,150.127H697.865A13.345,13.345,0,0,1,711.206,163.47Z" transform="translate(-425.456 -150.127)" fill="url(#linear-gradient-2)"/>
        <g id="Group_6794" data-name="Group 6794" transform="translate(245.828 5.801)">
          <path id="Path_6940" data-name="Path 6940" d="M619.712,156.824a2.218,2.218,0,1,1-2.218-2.218A2.218,2.218,0,0,1,619.712,156.824Z" transform="translate(-615.275 -154.606)" fill="url(#linear-gradient-3)"/>
          <path id="Path_6941" data-name="Path 6941" d="M627.655,156.824a2.219,2.219,0,1,1-2.218-2.218A2.218,2.218,0,0,1,627.655,156.824Z" transform="translate(-612.932 -154.606)" fill="url(#linear-gradient-3)"/>
          <path id="Path_6942" data-name="Path 6942" d="M635.084,156.824a2.219,2.219,0,1,1-2.22-2.218A2.219,2.219,0,0,1,635.084,156.824Z" transform="translate(-610.74 -154.606)" fill="url(#linear-gradient-3)"/>
        </g>
      </g>
      <g id="Group_6819" data-name="Group 6819" transform="translate(19.939 15.358)">
        <g id="Group_6799" data-name="Group 6799" transform="translate(0 24.895)">
          <g transform="matrix(1, 0, 0, 1, -128.75, -141.23)" filter="url(#Rectangle_1199)">
            <rect id="Rectangle_1199-2" data-name="Rectangle 1199" width="86.591" height="137.226" rx="4.46" transform="translate(128.75 141.23)" fill="#fff"/>
          </g>
          <g id="Group_6798" data-name="Group 6798" transform="translate(8.464 9.133)">
            <g id="Group_6796" data-name="Group 6796">
              <path id="Path_6943" data-name="Path 6943" d="M517.047,192.536v39.05a4.285,4.285,0,0,1-4.275,4.276H451.663a4.285,4.285,0,0,1-4.275-4.276v-39.05a4.274,4.274,0,0,1,4.275-4.275h61.109A4.274,4.274,0,0,1,517.047,192.536Z" transform="translate(-447.388 -188.261)" fill="#a4bbfc"/>
              <path id="Path_6944" data-name="Path 6944" d="M517.047,218.707v9.618a4.288,4.288,0,0,1-4.275,4.276H451.663a4.288,4.288,0,0,1-4.275-4.276v-9.618l19.061-18.456a3.334,3.334,0,0,1,4.742.1L487.9,218.013a2.891,2.891,0,0,0,4.043.152l9.991-9.089a4.006,4.006,0,0,1,5.516.118Z" transform="translate(-447.388 -185)" fill="url(#linear-gradient-6)"/>
              <circle id="Ellipse_18" data-name="Ellipse 18" cx="4.955" cy="4.955" r="4.955" transform="translate(51.323 7.949)" fill="url(#linear-gradient-7)"/>
            </g>
            <path id="Path_6945" data-name="Path 6945" d="M481.075,241.584H451.09a3.7,3.7,0,0,1-3.7-3.7h0a3.7,3.7,0,0,1,3.7-3.7h29.985a3.7,3.7,0,0,1,3.7,3.7h0A3.7,3.7,0,0,1,481.075,241.584Z" transform="translate(-447.387 -174.709)" fill="url(#linear-gradient-8)"/>
            <g id="Group_6797" data-name="Group 6797" transform="translate(0.006 74.003)">
              <path id="Path_6946" data-name="Path 6946" d="M473.688,248.209H448.8a1.4,1.4,0,0,1-1.4-1.4h0a1.4,1.4,0,0,1,1.4-1.4h24.891a1.4,1.4,0,0,1,1.4,1.4h0A1.4,1.4,0,0,1,473.688,248.209Z" transform="translate(-447.393 -245.403)" fill="#bccafc"/>
              <path id="Path_6947" data-name="Path 6947" d="M502.26,253.428H448.8a1.4,1.4,0,0,1-1.4-1.4h0a1.4,1.4,0,0,1,1.4-1.4H502.26a1.4,1.4,0,0,1,1.4,1.4h0A1.4,1.4,0,0,1,502.26,253.428Z" transform="translate(-447.393 -243.864)" fill="#bccafc"/>
              <path id="Path_6948" data-name="Path 6948" d="M502.26,258.645H448.8a1.4,1.4,0,0,1-1.4-1.4h0a1.4,1.4,0,0,1,1.4-1.4H502.26a1.4,1.4,0,0,1,1.4,1.4h0A1.4,1.4,0,0,1,502.26,258.645Z" transform="translate(-447.393 -242.324)" fill="#bccafc"/>
              <path id="Path_6949" data-name="Path 6949" d="M491.772,263.862H448.8a1.4,1.4,0,0,1-1.4-1.4h0a1.4,1.4,0,0,1,1.4-1.4h42.976a1.4,1.4,0,0,1,1.4,1.4h0A1.4,1.4,0,0,1,491.772,263.862Z" transform="translate(-447.393 -240.785)" fill="#bccafc"/>
            </g>
            <path id="Path_6950" data-name="Path 6950" d="M495.169,282.056H462.832a4.537,4.537,0,0,1-4.537-4.538h0a4.537,4.537,0,0,1,4.537-4.538h32.338a4.538,4.538,0,0,1,4.538,4.538h0A4.538,4.538,0,0,1,495.169,282.056Z" transform="translate(-444.17 -163.263)" fill="url(#linear-gradient-9)"/>
          </g>
        </g>
        <g id="Group_6803" data-name="Group 6803" transform="translate(97.545 24.896)">
          <g transform="matrix(1, 0, 0, 1, -226.3, -141.23)" filter="url(#Path_6951)">
            <path id="Path_6951-2" data-name="Path 6951" d="M562.663,185.635v59.753a4.434,4.434,0,0,1-4.425,4.436H520.61a4.444,4.444,0,0,1-4.437-4.436V185.635a4.434,4.434,0,0,1,4.437-4.425h37.628A4.424,4.424,0,0,1,562.663,185.635Z" transform="translate(-289.88 -39.98)" fill="#fff"/>
          </g>
          <path id="Path_6952" data-name="Path 6952" d="M516.173,223.976h46.49v8.794a4.434,4.434,0,0,1-4.425,4.436H520.61a4.444,4.444,0,0,1-4.437-4.436Z" transform="translate(-516.173 -168.591)" fill="url(#linear-gradient-10)"/>
          <g id="Group_6802" data-name="Group 6802" transform="translate(7.967 12.268)">
            <g id="Group_6800" data-name="Group 6800">
              <path id="Path_6953" data-name="Path 6953" d="M537.6,190.683a15.283,15.283,0,1,0,15.278,15.288A15.281,15.281,0,0,0,537.6,190.683Zm0,27.069a11.786,11.786,0,1,1,11.781-11.781A11.738,11.738,0,0,1,537.6,217.753Z" transform="translate(-522.325 -190.683)" fill="#a4bbfc"/>
              <path id="Path_6954" data-name="Path 6954" d="M551.587,205.971a15.274,15.274,0,0,1-24.874,11.884l2.2-2.717a11.785,11.785,0,1,0,7.4-20.958v-3.5A15.281,15.281,0,0,1,551.587,205.971Z" transform="translate(-521.031 -190.683)" fill="url(#linear-gradient-11)"/>
            </g>
            <g id="Group_6801" data-name="Group 6801" transform="translate(7.564 13.161)">
              <rect id="Rectangle_1200" data-name="Rectangle 1200" width="9.984" height="1.462" transform="translate(2.723 3.756)" fill="#a4bbfc"/>
              <rect id="Rectangle_1201" data-name="Rectangle 1201" width="15.429" height="1.462" fill="#a4bbfc"/>
            </g>
          </g>
        </g>
        <g id="Group_6807" data-name="Group 6807" transform="translate(150.645 24.896)">
          <g transform="matrix(1, 0, 0, 1, -279.39, -141.23)" filter="url(#Path_6955)">
            <path id="Path_6955-2" data-name="Path 6955" d="M603.664,185.635v59.753a4.434,4.434,0,0,1-4.425,4.436H561.611a4.443,4.443,0,0,1-4.437-4.436V185.635a4.434,4.434,0,0,1,4.437-4.425h37.628A4.425,4.425,0,0,1,603.664,185.635Z" transform="translate(-277.78 -39.98)" fill="#fff"/>
          </g>
          <path id="Path_6956" data-name="Path 6956" d="M557.174,223.976h46.49v8.794a4.434,4.434,0,0,1-4.425,4.436H561.611a4.443,4.443,0,0,1-4.437-4.436Z" transform="translate(-557.174 -168.591)" fill="url(#linear-gradient-12)"/>
          <g id="Group_6806" data-name="Group 6806" transform="translate(7.967 12.268)">
            <g id="Group_6804" data-name="Group 6804">
              <path id="Path_6957" data-name="Path 6957" d="M578.6,190.683a15.29,15.29,0,1,0,15.278,15.288A15.281,15.281,0,0,0,578.6,190.683Zm0,27.069a11.8,11.8,0,1,1,9.7-5.1A11.735,11.735,0,0,1,578.6,217.753Z" transform="translate(-563.326 -190.683)" fill="#a4bbfc"/>
              <path id="Path_6958" data-name="Path 6958" d="M590.4,205.971a15.219,15.219,0,0,1-2.694,8.669l-2.886-1.992a11.657,11.657,0,0,0,2.082-6.677,11.783,11.783,0,0,0-11.781-11.792v-3.5A15.281,15.281,0,0,1,590.4,205.971Z" transform="translate(-559.845 -190.683)" fill="url(#linear-gradient-13)"/>
            </g>
            <g id="Group_6805" data-name="Group 6805" transform="translate(7.563 13.161)">
              <rect id="Rectangle_1202" data-name="Rectangle 1202" width="9.984" height="1.462" transform="translate(2.723 3.756)" fill="#a4bbfc"/>
              <rect id="Rectangle_1203" data-name="Rectangle 1203" width="15.429" height="1.462" fill="#a4bbfc"/>
            </g>
          </g>
        </g>
        <g id="Group_6808" data-name="Group 6808" transform="translate(203.743 24.896)" style="mix-blend-mode: multiply;isolation: isolate">
          <g transform="matrix(1, 0, 0, 1, -332.49, -141.23)" filter="url(#Path_6959)">
            <path id="Path_6959-2" data-name="Path 6959" d="M644.665,185.635v59.753a4.437,4.437,0,0,1-4.437,4.436H602.611a4.436,4.436,0,0,1-4.436-4.436V185.635a4.426,4.426,0,0,1,4.436-4.425h37.618A4.427,4.427,0,0,1,644.665,185.635Z" transform="translate(-265.68 -39.98)" fill="url(#linear-gradient-14)"/>
          </g>
        </g>
        <g id="Group_6812" data-name="Group 6812" transform="translate(212.171)">
          <g transform="matrix(1, 0, 0, 1, -340.92, -116.34)" filter="url(#Path_6960)">
            <path id="Path_6960-2" data-name="Path 6960" d="M661.565,167.4v73.113a5.428,5.428,0,0,1-5.428,5.428H610.11a5.428,5.428,0,0,1-5.428-5.428V167.4a5.416,5.416,0,0,1,5.428-5.413h46.028A5.416,5.416,0,0,1,661.565,167.4Z" transform="translate(-263.76 -45.65)" fill="#fff"/>
          </g>
          <path id="Path_6961" data-name="Path 6961" d="M661.565,214.313v10.759a5.428,5.428,0,0,1-5.428,5.428H610.11a5.428,5.428,0,0,1-5.428-5.428V214.313Z" transform="translate(-604.682 -146.546)" fill="url(#linear-gradient-15)"/>
          <g id="Group_6811" data-name="Group 6811" transform="translate(9.748 15.01)">
            <g id="Group_6809" data-name="Group 6809">
              <path id="Path_6962" data-name="Path 6962" d="M630.9,173.576a18.7,18.7,0,0,0-18.694,18.707v.139A18.694,18.694,0,1,0,630.9,173.576Zm11.867,26.876a14.41,14.41,0,0,1-26.282-8.072v-.1a14.415,14.415,0,1,1,28.829,0A14.258,14.258,0,0,1,642.77,200.453Z" transform="translate(-612.209 -173.576)" fill="#a4bbfc"/>
              <path id="Path_6963" data-name="Path 6963" d="M649.6,192.283a18.694,18.694,0,0,1-37.387.139l4.279-.041a14.409,14.409,0,0,0,26.282,8.072,14.258,14.258,0,0,0,2.547-8.169A14.415,14.415,0,0,0,630.9,177.855v-4.279A18.7,18.7,0,0,1,649.6,192.283Z" transform="translate(-612.209 -173.576)" fill="url(#linear-gradient-16)"/>
            </g>
            <g id="Group_6810" data-name="Group 6810" transform="translate(9.255 16.104)">
              <rect id="Rectangle_1204" data-name="Rectangle 1204" width="12.216" height="1.789" transform="translate(3.331 4.596)" fill="#a4bbfc"/>
              <rect id="Rectangle_1205" data-name="Rectangle 1205" width="18.879" height="1.789" fill="#a4bbfc"/>
            </g>
          </g>
        </g>
        <g id="Group_6818" data-name="Group 6818" transform="translate(97.549 108.232)">
          <g transform="matrix(1, 0, 0, 1, -226.3, -224.57)" filter="url(#Rectangle_1206)" style="mix-blend-mode: multiply;isolation: isolate">
            <rect id="Rectangle_1206-2" data-name="Rectangle 1206" width="152.685" height="53.878" rx="5.275" transform="translate(226.3 224.57)" fill="url(#linear-gradient-17)"/>
          </g>
          <g id="Group_6817" data-name="Group 6817" transform="translate(9.614 4.722)">
            <rect id="Rectangle_1207" data-name="Rectangle 1207" width="1.429" height="43.295" transform="translate(47.06)" fill="#fff"/>
            <g id="Group_6814" data-name="Group 6814" transform="translate(59.012 4.241)">
              <path id="Path_6964" data-name="Path 6964" d="M601.341,261.17h-27.83a4.345,4.345,0,0,1-4.345-4.345h0a4.346,4.346,0,0,1,4.345-4.346h27.83a4.347,4.347,0,0,1,4.346,4.346h0A4.346,4.346,0,0,1,601.341,261.17Z" transform="translate(-569.166 -252.479)" fill="url(#linear-gradient-18)"/>
              <g id="Group_6813" data-name="Group 6813" transform="translate(0 17.407)">
                <rect id="Rectangle_1208" data-name="Rectangle 1208" width="38.201" height="2.555" fill="#a4bbfc"/>
                <rect id="Rectangle_1209" data-name="Rectangle 1209" width="62" height="2.555" transform="translate(0 7.462)" fill="#a4bbfc"/>
              </g>
            </g>
            <g id="Group_6816" data-name="Group 6816" transform="translate(0 4.332)">
              <rect id="Rectangle_1210" data-name="Rectangle 1210" width="35.833" height="35.833" rx="2.82" fill="#fff"/>
              <g id="Group_6815" data-name="Group 6815" transform="translate(7.325 5.416)">
                <path id="Path_6965" data-name="Path 6965" d="M550.44,268.8A10.592,10.592,0,1,1,539.847,258.2V268.8Z" transform="translate(-529.255 -256.298)" fill="#a4bbfc"/>
                <path id="Path_6966" data-name="Path 6966" d="M549.934,269.232h-12.5v-12.5A12.5,12.5,0,0,1,549.934,269.232Z" transform="translate(-526.842 -256.732)" fill="url(#linear-gradient-19)"/>
              </g>
            </g>
          </g>
        </g>
      </g>
    </g>
    <g id="Group_6836" data-name="Group 6836" transform="translate(344.525 57.259)">
      <g id="Group_6825" data-name="Group 6825" transform="translate(0 96.617)">
        <g transform="matrix(1, 0, 0, 1, -4, -98.62)" filter="url(#Rectangle_1211)" style="mix-blend-mode: multiply;isolation: isolate">
          <rect id="Rectangle_1211-2" data-name="Rectangle 1211" width="91.566" height="129.303" rx="8.496" transform="translate(4 98.62)" fill="url(#linear-gradient-20)"/>
        </g>
        <g id="Group_6824" data-name="Group 6824" transform="translate(11.735 15.732)">
          <path id="Path_6967" data-name="Path 6967" d="M402.3,223.017H367.516a4.692,4.692,0,0,1-4.692-4.693h0a4.692,4.692,0,0,1,4.692-4.692H402.3a4.692,4.692,0,0,1,4.693,4.692h0A4.692,4.692,0,0,1,402.3,223.017Z" transform="translate(-350.861 -144.758)" fill="url(#linear-gradient-21)"/>
          <g id="Group_6822" data-name="Group 6822">
            <rect id="Rectangle_1212" data-name="Rectangle 1212" width="68.096" height="59.814" rx="3.055" fill="url(#linear-gradient-22)"/>
            <g id="Group_6821" data-name="Group 6821" transform="translate(10.424 6.283)">
              <circle id="Ellipse_19" data-name="Ellipse 19" cx="16.705" cy="16.705" r="16.705" transform="translate(0 23.624) rotate(-45)" fill="#fff"/>
              <path id="Path_6968" data-name="Path 6968" d="M388.079,186.632l-9.736,6.1a1.579,1.579,0,0,1-2.418-1.338v-12.2a1.579,1.579,0,0,1,2.418-1.338l9.736,6.1A1.579,1.579,0,0,1,388.079,186.632Z" transform="translate(-357.419 -161.67)" fill="url(#linear-gradient-23)"/>
            </g>
          </g>
          <g id="Group_6823" data-name="Group 6823" transform="translate(5.012 86.035)" opacity="0.53" style="mix-blend-mode: screen;isolation: isolate">
            <rect id="Rectangle_1213" data-name="Rectangle 1213" width="38.655" height="3.799" transform="translate(9.708)" fill="#beabfb"/>
            <rect id="Rectangle_1214" data-name="Rectangle 1214" width="58.071" height="3.799" transform="translate(0 8.302)" fill="#beabfb"/>
          </g>
        </g>
      </g>
      <g id="Group_6833" data-name="Group 6833" transform="translate(97.879 314.685)">
        <g transform="matrix(1, 0, 0, 1, -101.88, -316.68)" filter="url(#Rectangle_1216)" style="mix-blend-mode: multiply;isolation: isolate">
          <rect id="Rectangle_1216-2" data-name="Rectangle 1216" width="200.861" height="68.172" rx="9.137" transform="translate(101.88 316.68)" fill="url(#linear-gradient-24)"/>
        </g>
        <g id="Group_6832" data-name="Group 6832" transform="translate(16.441 12.341)">
          <g id="Group_6829" data-name="Group 6829">
            <g transform="matrix(1, 0, 0, 1, -118.32, -329.03)" filter="url(#Rectangle_1217)">
              <rect id="Rectangle_1217-2" data-name="Rectangle 1217" width="43.802" height="43.802" rx="7.127" transform="translate(118.32 329.03)" fill="url(#linear-gradient-25)"/>
            </g>
            <path id="Path_6977" data-name="Path 6977" d="M463.013,343.755l-10.4-9.028a.6.6,0,0,0-.786,0l-10.4,9.028a.6.6,0,0,0,.394,1.052h2.23a.6.6,0,0,1,.6.6V356.12a.6.6,0,0,0,.6.6h4.022a.6.6,0,0,0,.6-.6v-4.609a.6.6,0,0,1,.6-.6h3.5a.6.6,0,0,1,.6.6v4.609a.6.6,0,0,0,.6.6h4.038a.6.6,0,0,0,.6-.6V345.406a.6.6,0,0,1,.6-.6h2.229A.6.6,0,0,0,463.013,343.755Z" transform="translate(-430.316 -323.748)" fill="#fff"/>
          </g>
          <g id="Group_6830" data-name="Group 6830" transform="translate(59.63)">
            <g transform="matrix(1, 0, 0, 1, -177.95, -329.03)" filter="url(#Rectangle_1218)">
              <rect id="Rectangle_1218-2" data-name="Rectangle 1218" width="43.802" height="43.802" rx="7.127" transform="translate(177.95 329.03)" fill="url(#linear-gradient-26)"/>
            </g>
            <path id="Path_6978" data-name="Path 6978" d="M497.481,333.558a7.559,7.559,0,0,0-7.558,7.559c0,4.508,3.81,12.206,6.025,16.3a1.756,1.756,0,0,0,3.1,0c2.215-4.043,5.978-11.618,5.978-16.3A7.546,7.546,0,0,0,497.481,333.558Zm0,11.558a3.711,3.711,0,1,1,3.7-3.7A3.7,3.7,0,0,1,497.481,345.117Z" transform="translate(-475.573 -324.05)" fill="#fff"/>
          </g>
          <g id="Group_6831" data-name="Group 6831" transform="translate(120.658)">
            <g transform="matrix(1, 0, 0, 1, -238.98, -329.03)" filter="url(#Rectangle_1219)">
              <rect id="Rectangle_1219-2" data-name="Rectangle 1219" width="43.802" height="43.802" rx="7.127" transform="translate(238.98 329.03)" fill="url(#linear-gradient-27)"/>
            </g>
            <path id="Path_6979" data-name="Path 6979" d="M545.689,337.2a10.7,10.7,0,0,1,3.739-4.421,2.809,2.809,0,0,1,3.98.977l1.4,2.485a14.314,14.314,0,0,1,.6,13.056,19.428,19.428,0,0,1-3.289,4.967,14,14,0,0,1-15.051,3.535l-.591-.211a3.438,3.438,0,0,1-1.5-5.439,10.783,10.783,0,0,1,2.169-1.956,2.585,2.585,0,0,1,3.19.192l1.181,1.068a3.206,3.206,0,0,0,3.975.262,11.554,11.554,0,0,0,4.8-6.091,3.179,3.179,0,0,0-1.365-3.564l-2.27-1.453A2.674,2.674,0,0,1,545.689,337.2Z" transform="translate(-523.542 -324.415)" fill="#fff"/>
          </g>
        </g>
      </g>
      <g id="Group_6835" data-name="Group 6835" transform="translate(417.67 73.179)">
        <g transform="matrix(1, 0, 0, 1, -421.67, -75.18)" filter="url(#Rectangle_1220)" style="mix-blend-mode: multiply;isolation: isolate">
          <rect id="Rectangle_1220-2" data-name="Rectangle 1220" width="64.93" height="47.16" rx="4.321" transform="translate(421.67 75.18)" fill="url(#linear-gradient-28)"/>
        </g>
        <g id="Group_6834" data-name="Group 6834" transform="translate(12.367 13.788)">
          <path id="Path_6980" data-name="Path 6980" d="M676.583,149.464l11.953-6.064v3.331l-8.58,4.18,8.58,4.3v3.353l-11.953-6.153Z" transform="translate(-676.583 -140.1)" fill="#f5f7f9"/>
          <path id="Path_6981" data-name="Path 6981" d="M688.117,160.435l7.223-19.583h3.1l-7.2,19.583Z" transform="translate(-673.18 -140.852)" fill="#f5f7f9"/>
          <path id="Path_6982" data-name="Path 6982" d="M710.345,152.5l-11.953,6.065v-3.356l8.578-4.179-8.578-4.3V143.4l11.953,6.15Z" transform="translate(-670.148 -140.1)" fill="#f5f7f9"/>
        </g>
      </g>
      <g id="Group_6856" data-name="Group 6856" transform="translate(201.196 0)">
        <g transform="matrix(1, 0, 0, 1, -205.2, -2)" filter="url(#Path_7022)" style="mix-blend-mode: multiply;isolation: isolate">
          <path id="Path_7022-2" data-name="Path 7022" d="M5.393,0H98.727a5.393,5.393,0,0,1,5.393,5.393V74.274a5.393,5.393,0,0,1-5.393,5.393H5.393A5.393,5.393,0,0,1,0,74.274V5.393A5.393,5.393,0,0,1,5.393,0Z" transform="translate(205.2 2)" fill="url(#linear-gradient-29)"/>
        </g>
        <g id="Group_6826" data-name="Group 6826" transform="translate(36.706 11.881)">
          <path id="Path_6969" data-name="Path 6969" d="M558.925,118.785a15.35,15.35,0,1,1-15.35-15.352A15.336,15.336,0,0,1,558.925,118.785Z" transform="translate(-528.224 -103.433)" fill="url(#linear-gradient-30)"/>
          <path id="Path_6970" data-name="Path 6970" d="M546.257,111.925a5.031,5.031,0,1,1-5.031-5.031A5.031,5.031,0,0,1,546.257,111.925Z" transform="translate(-525.872 -102.412)" fill="#f5f7f9"/>
          <path id="Path_6971" data-name="Path 6971" d="M553.083,125.728a15.328,15.328,0,0,1-21.174,0,10.957,10.957,0,0,1,21.174,0Z" transform="translate(-527.137 -99.254)" fill="#f5f7f9"/>
        </g>
        <g id="Group_6827" data-name="Group 6827" transform="translate(17.4 54.302)">
          <path id="Path_6972" data-name="Path 6972" d="M519.39,136.565l1.168,2.366a.676.676,0,0,0,.508.369l2.611.379a.675.675,0,0,1,.374,1.151l-1.89,1.84a.674.674,0,0,0-.194.6l.447,2.6a.675.675,0,0,1-.979.711l-2.335-1.228a.681.681,0,0,0-.628,0l-2.335,1.228a.674.674,0,0,1-.979-.711l.445-2.6a.674.674,0,0,0-.194-.6l-1.888-1.84a.675.675,0,0,1,.374-1.151l2.61-.379a.676.676,0,0,0,.509-.369l1.167-2.366A.674.674,0,0,1,519.39,136.565Z" transform="translate(-513.316 -136.189)" fill="url(#linear-gradient-31)"/>
          <path id="Path_6973" data-name="Path 6973" d="M530.888,136.565l1.167,2.366a.676.676,0,0,0,.509.369l2.611.379a.675.675,0,0,1,.373,1.151l-1.888,1.84a.674.674,0,0,0-.194.6l.445,2.6a.674.674,0,0,1-.979.711l-2.335-1.228a.681.681,0,0,0-.628,0l-2.335,1.228a.674.674,0,0,1-.978-.711l.445-2.6a.674.674,0,0,0-.194-.6l-1.89-1.84a.675.675,0,0,1,.374-1.151L528,139.3a.674.674,0,0,0,.508-.369l1.168-2.366A.674.674,0,0,1,530.888,136.565Z" transform="translate(-509.924 -136.189)" fill="url(#linear-gradient-31)"/>
          <path id="Path_6974" data-name="Path 6974" d="M541.956,136.565l1.168,2.366a.672.672,0,0,0,.508.369l2.611.379a.675.675,0,0,1,.373,1.151l-1.888,1.84a.674.674,0,0,0-.194.6l.445,2.6a.675.675,0,0,1-.979.711l-2.335-1.228a.681.681,0,0,0-.628,0l-2.335,1.228a.675.675,0,0,1-.979-.711l.447-2.6a.674.674,0,0,0-.194-.6l-1.889-1.84a.675.675,0,0,1,.374-1.151l2.611-.379a.674.674,0,0,0,.508-.369l1.168-2.366A.674.674,0,0,1,541.956,136.565Z" transform="translate(-506.658 -136.189)" fill="url(#linear-gradient-31)"/>
          <path id="Path_6975" data-name="Path 6975" d="M553.454,136.565l1.167,2.366a.676.676,0,0,0,.508.369l2.611.379a.675.675,0,0,1,.374,1.151l-1.89,1.84a.675.675,0,0,0-.194.6l.447,2.6a.674.674,0,0,1-.979.711l-2.335-1.228a.681.681,0,0,0-.628,0l-2.335,1.228a.674.674,0,0,1-.979-.711l.445-2.6a.677.677,0,0,0-.193-.6l-1.89-1.84a.675.675,0,0,1,.374-1.151l2.61-.379a.676.676,0,0,0,.509-.369l1.167-2.366A.676.676,0,0,1,553.454,136.565Z" transform="translate(-503.265 -136.189)" fill="url(#linear-gradient-31)"/>
          <path id="Path_6976" data-name="Path 6976" d="M564.478,136.565l1.168,2.366a.672.672,0,0,0,.508.369l2.611.379a.675.675,0,0,1,.373,1.151l-1.888,1.84a.674.674,0,0,0-.194.6l.445,2.6a.674.674,0,0,1-.979.711l-2.335-1.228a.681.681,0,0,0-.628,0l-2.335,1.228a.675.675,0,0,1-.979-.711l.447-2.6a.674.674,0,0,0-.194-.6l-1.889-1.84a.675.675,0,0,1,.374-1.151l2.611-.379a.674.674,0,0,0,.508-.369l1.168-2.366A.674.674,0,0,1,564.478,136.565Z" transform="translate(-500.012 -136.189)" fill="url(#linear-gradient-31)"/>
        </g>
      </g>
    </g>
    <g id="Group_6853" data-name="Group 6853" transform="translate(685.335 205.184)">
      <g id="Group_6837" data-name="Group 6837" transform="translate(42.419 32.591)">
        <path id="Path_6983" data-name="Path 6983" d="M645.821,220.093s-5.035.607-4.771,1.4,5.245.554,5.641.606,4.086,1.845,4.086,1.845Z" transform="translate(-640.262 -211.02)" fill="#d481a0"/>
        <path id="Path_6984" data-name="Path 6984" d="M648.239,219.982s-6.607-3.094-7.618-2.689c-1.186.474,3.809,3.109,3.809,3.109l5.786,3.77Z" transform="translate(-640.439 -211.857)" fill="#d481a0"/>
        <path id="Path_6985" data-name="Path 6985" d="M681.456,259.013l-9,5.693-12.969-30.683S652.211,223,649.258,219.314s-4.165-6.378-5.114-6.22,1.16,5.482,2.426,7.485,3.365,6.714,3.365,8.172c0,1.423-1.2,1.739-5.684-.46-3.428-1.682-1.757,1.251,0,2.937,1.131,1.087,9.437,6.7,9.437,6.7s6.273,37.854,11.177,42.6,26.413-8.383,26.413-8.383Z" transform="translate(-639.903 -213.087)" fill="url(#linear-gradient-36)"/>
        <path id="Path_6986" data-name="Path 6986" d="M687.907,264.006a109.315,109.315,0,0,1-14.04,7.109c-5.165,2.067-10.276,3.292-12.372,1.269-2-1.926-4.223-9.354-6.158-17.474-.587-2.494-1.154-5.04-1.669-7.517.905-.71,2.13-1.651,3.533-2.743.221-.177.461-.355.7-.541h.009c1.366-1.065,2.884-2.228,4.455-3.442l6.727,15.9,9-5.7Z" transform="translate(-636.536 -204.949)" fill="url(#linear-gradient-37)"/>
      </g>
      <g id="Group_6839" data-name="Group 6839" transform="translate(0 50.341)">
        <g id="Group_6838" data-name="Group 6838">
          <path id="Path_6987" data-name="Path 6987" d="M619.857,238.144a11.853,11.853,0,0,0,0-4.235c-.448-1.95-.25-3.479.1-3.637s1.351,2.213,2.4,5.43a28.768,28.768,0,0,1,.9,8.044Z" transform="translate(-604.17 -225.768)" fill="#e098b1"/>
          <path id="Path_6988" data-name="Path 6988" d="M666.41,252.569l-11.134,7.224-27.546-15.5s-6.247-10.767-7.987-12.111-6.721-5.614-7.987-5.377.632,2.61.632,2.61-3.163-2.373-3.875-1.82,1.423,3.243,1.423,3.243-1.581-.949-2.134-.554,1.027,2.531,1.027,2.531-1.1-.632-1.145.791,5.732,6.089,7,8.225,3.576,6,5.079,7.342a13.238,13.238,0,0,0,3.7,2.147S646.138,272.7,652.6,275.309s21.486-8.9,21.486-8.9Z" transform="translate(-607.685 -226.793)" fill="url(#linear-gradient-38)"/>
        </g>
        <path id="Path_6989" data-name="Path 6989" d="M652.428,247.087l5.139,15.674,2.547-1.776Z" transform="translate(-594.483 -220.805)" fill="url(#linear-gradient-39)"/>
      </g>
      <g id="Group_6848" data-name="Group 6848" transform="translate(56.648 126.123)">
        <g id="Group_6843" data-name="Group 6843">
          <g id="Group_6842" data-name="Group 6842" transform="translate(0 145.007)">
            <g id="Group_6840" data-name="Group 6840">
              <path id="Path_6990" data-name="Path 6990" d="M677.952,408.27l-4.27,2.517-6.6-2.974.847-10.535H679.5Z" transform="translate(-646.808 -397.277)" fill="#e098b1"/>
              <path id="Path_6991" data-name="Path 6991" d="M682.843,419.521H653.778a2.168,2.168,0,0,1-2.051-2.882c.025-.069.049-.139.076-.207a5.184,5.184,0,0,1,2.085-2.61c2.849-1.739,16.792-7.791,16.792-7.791s.2-1.212.271-2.686c.061-1.233,1.037-1.219,1.037-1.219s1.434,3.923,4.274,4.711,6.194-.657,6.194-.657l.477-2.277c1.9,2.343,2.044,8.685,2.382,12.527.01.127.021.25.031.37A2.509,2.509,0,0,1,682.843,419.521Z" transform="translate(-651.375 -395.846)" fill="#7944d5"/>
              <path id="Path_6992" data-name="Path 6992" d="M683.3,416.262H652.795a1.361,1.361,0,0,1-1.349-1.579,7.631,7.631,0,0,1,.409-1.51h33.511c.023.277.045.541.065.79A2.133,2.133,0,0,1,683.3,416.262Z" transform="translate(-651.426 -392.587)" fill="#ccbcf1"/>
            </g>
            <g id="Group_6841" data-name="Group 6841" transform="translate(13.3 10.783)">
              <path id="Path_6993" data-name="Path 6993" d="M666.274,410.718a.447.447,0,0,1-.352-.174,7.253,7.253,0,0,0-3.859-2.91.443.443,0,0,1,.15-.874c.091.016,2.228.4,4.412,3.243a.445.445,0,0,1-.08.623A.452.452,0,0,1,666.274,410.718Z" transform="translate(-661.696 -405.264)" fill="#ccbcf1"/>
              <path id="Path_6994" data-name="Path 6994" d="M670.244,409.518a.447.447,0,0,1-.311-.127c-3.1-3.029-5.469-2.9-5.5-2.9a.443.443,0,0,1-.072-.883c.111-.008,2.774-.2,6.194,3.15a.444.444,0,0,1-.311.76Z" transform="translate(-661.029 -405.604)" fill="#ccbcf1"/>
            </g>
          </g>
          <path id="Path_6995" data-name="Path 6995" d="M706.929,285.309a75.1,75.1,0,0,1,2.793,18.821c0,9.489-21.088,76.128-21.088,76.128l-6.326,53.985H665.86s1.265-58.625,2.951-70.434,10.122-78.5,10.122-78.5Z" transform="translate(-647.167 -285.309)" fill="url(#linear-gradient-40)"/>
          <path id="Path_6996" data-name="Path 6996" d="M706.929,285.309a75.1,75.1,0,0,1,2.793,18.821c0,9.489-21.088,76.128-21.088,76.128l-6.326,53.985H665.86s1.265-58.625,2.951-70.434,10.122-78.5,10.122-78.5Z" transform="translate(-647.167 -285.309)" opacity="0.5" fill="url(#linear-gradient-41)" style="mix-blend-mode: multiply;isolation: isolate"/>
        </g>
        <g id="Group_6846" data-name="Group 6846" transform="translate(31.939 145.007)">
          <path id="Path_6997" data-name="Path 6997" d="M702.989,408.27l-4.27,2.517-5.588-2.517-2.662-10.992h11.493Z" transform="translate(-671.846 -397.277)" fill="#e9a8bc"/>
          <g id="Group_6845" data-name="Group 6845" transform="translate(0 6.281)">
            <path id="Path_6998" data-name="Path 6998" d="M707.505,419.521H678.44a2.168,2.168,0,0,1-2.051-2.882c.025-.069.049-.139.076-.207a5.183,5.183,0,0,1,2.085-2.61c2.849-1.739,16.792-7.791,16.792-7.791s-.258-1.518-.32-2.663c-.062-1.234,1.456-1.242,1.456-1.242s1.606,3.923,4.446,4.711,6.194-.657,6.194-.657L706.9,403.9c1.9,2.343,2.734,8.689,3.072,12.531.01.127.021.25.031.37A2.509,2.509,0,0,1,707.505,419.521Z" transform="translate(-676.037 -402.127)" fill="#9055ea"/>
            <path id="Path_6999" data-name="Path 6999" d="M707.964,416.262H677.457a1.361,1.361,0,0,1-1.349-1.579,7.623,7.623,0,0,1,.409-1.51h33.511c.023.277.045.541.065.79A2.133,2.133,0,0,1,707.964,416.262Z" transform="translate(-676.088 -398.868)" fill="#e6dafd"/>
            <g id="Group_6844" data-name="Group 6844" transform="translate(12.124 4.766)">
              <path id="Path_7000" data-name="Path 7000" d="M690.027,410.921a.445.445,0,0,1-.352-.174,7.257,7.257,0,0,0-3.858-2.91.444.444,0,0,1-.36-.513.439.439,0,0,1,.509-.361c.091.016,2.227.4,4.413,3.243a.444.444,0,0,1-.352.715Z" transform="translate(-685.45 -405.468)" fill="#e6dafd"/>
              <path id="Path_7001" data-name="Path 7001" d="M694,409.721a.442.442,0,0,1-.309-.126c-3.1-3.03-5.47-2.9-5.5-2.9a.443.443,0,0,1-.073-.883c.111-.007,2.774-.2,6.194,3.15a.443.443,0,0,1-.311.76Z" transform="translate(-684.783 -405.807)" fill="#e6dafd"/>
            </g>
          </g>
        </g>
        <g id="Group_6847" data-name="Group 6847" transform="translate(21.114 0.512)">
          <path id="Path_7002" data-name="Path 7002" d="M711.833,434.125H693.771s-17.292-56.935-18.763-67.267c-.735-5.149-4.3-35.015-6.157-50.575-.227-1.891-.408-3.78-.566-5.681q-.491-5.958-.543-11.939c-.012-.418-.012-.838-.012-1.256v-6.417l22.646-3.394,12.573-1.891c.306,2.309.554,4.368.747,6.281,1.041,9.925.736,15.459-1.041,27.432l-2.343,47.226Z" transform="translate(-667.73 -285.704)" fill="url(#linear-gradient-42)"/>
          <path id="Path_7003" data-name="Path 7003" d="M700.929,432.475h-.913c-1.092-4.27-11.13-43.592-13.5-54.739-2.494-11.75-9.124-85.6-9.194-86.35l.887-.08c.062.746,6.692,74.547,9.177,86.244C689.8,388.918,700.21,429.653,700.929,432.475Z" transform="translate(-664.899 -284.051)" fill="#5353c8"/>
          <path id="Path_7004" data-name="Path 7004" d="M703.7,291.554s-14.2,7.427-35.96,6.681c-.009-.417-.009-.843-.009-1.26V290.56l22.648-3.4C697.673,289.539,703.7,291.554,703.7,291.554Z" transform="translate(-667.73 -285.274)" opacity="0.5" fill="url(#linear-gradient-43)" style="mix-blend-mode: multiply;isolation: isolate"/>
        </g>
      </g>
      <g id="Group_6849" data-name="Group 6849" transform="translate(81.235)">
        <path id="Path_7005" data-name="Path 7005" d="M675.212,210.469s-2.91-5-2.673-9.589,7.671-7.118,7.671-7.118-.632-7.2,11.942-5.614S707.1,202.7,707.1,202.7s2.716.139,2.767,5.852c.054,6.089-1.265,8.927-6.486,13.681-4.929,4.489-5.509,7.7-5.509,7.7Z" transform="translate(-669.788 -187.921)" fill="url(#linear-gradient-44)"/>
        <circle id="Ellipse_20" data-name="Ellipse 20" cx="14.472" cy="14.472" r="14.472" transform="translate(0 21.579) rotate(-45)" fill="url(#linear-gradient-45)"/>
        <path id="Path_7006" data-name="Path 7006" d="M675.935,201.788a32.143,32.143,0,0,0-2.354,12.4c-.079,7.508-.553,18.5,9.094,16.765l-.711,6.405h15.973l-.369-11.518L689.95,216.4a4.873,4.873,0,0,0,4.978-5.621c-.372-5.292-6.007-2.445-6.243.4l-2.452,3.717s-2.688-1.739-2.452-8.3Z" transform="translate(-669.484 -183.83)" fill="url(#linear-gradient-46)"/>
        <path id="Path_7007" data-name="Path 7007" d="M680.758,225.015a22.864,22.864,0,0,0,8.219-3.108s.427,8.722-8.93,9.514Z" transform="translate(-667.568 -177.893)" fill="url(#linear-gradient-47)"/>
        <path id="Path_7008" data-name="Path 7008" d="M680.759,197.256" transform="translate(-667.358 -185.167)" fill="#5e99fb"/>
      </g>
      <g id="Group_6851" data-name="Group 6851" transform="translate(57.812 52.324)">
        <path id="Path_7009" data-name="Path 7009" d="M716.537,247.567v.883c.012,4.39-.2,9.393-.521,14.5a.717.717,0,0,1-.012.158c-.01.249-.022.5-.045.747-.373,5.692-.905,11.5-1.426,16.737-.034.328-.068.657-.091.984-.6,5.737-1.2,10.728-1.606,14.067-.035.329-.08.657-.126.951-.271,2.185-.44,3.451-.44,3.451s2.852,2.694,2.535,3.95-2.694,4.437-2.694,4.437c-13.127,1.811-28.223,2.376-39.835-.51l.215-14.292v-.94l.26-16.974.012-.917.158-10.48v-.181l-5.568,2.705-.85.418-4.7,2.274-1-1.811-5.082-9.166-1.663-3.021-1.743-3.146s.645-.51,1.743-1.359c.905-.7,2.128-1.653,3.53-2.739.215-.18.464-.35.7-.543h.012c1.357-1.063,2.874-2.23,4.447-3.44,1.789-1.37,3.656-2.784,5.432-4.143.238-.181.487-.361.725-.543,3.791-2.863,7.13-5.331,8.634-6.3a13.316,13.316,0,0,1,1.223-.712h.012a11.7,11.7,0,0,1,1.063-.543h.012a32.548,32.548,0,0,1,6.1-2.072c1.087-.271,1.878-.4,2.162-.442a.646.646,0,0,0,.1-.022s14.169-3.191,22.2.815a1.9,1.9,0,0,1,.329.181.524.524,0,0,1,.18.079c.08.045.114.069.114.069.215.113.418.249.633.385a9.323,9.323,0,0,1,2.037,1.777,8.062,8.062,0,0,1,1.154,1.754C716,236.9,716.48,241.637,716.537,247.567Z" transform="translate(-652.325 -228.324)" fill="url(#linear-gradient-48)"/>
        <g id="Group_6850" data-name="Group 6850" transform="translate(5.272 1.225)" opacity="0.45" style="mix-blend-mode: screen;isolation: isolate">
          <path id="Path_7010" data-name="Path 7010" d="M704.016,230.779a10.773,10.773,0,0,0-1.252-.719,68.584,68.584,0,0,1-22.31-.79c-.276.044-1.074.177-2.156.443a69.942,69.942,0,0,0,15.734,1.792A68.809,68.809,0,0,0,704.016,230.779Z" transform="translate(-649.934 -229.27)" fill="url(#linear-gradient-49)"/>
          <path id="Path_7011" data-name="Path 7011" d="M657.1,243.324c-.24.187-.479.364-.7.541a32.785,32.785,0,0,1,8.91,18.965l.852-.417a33.731,33.731,0,0,0-9.052-19.089Z" transform="translate(-656.396 -225.123)" fill="url(#linear-gradient-50)"/>
          <path id="Path_7012" data-name="Path 7012" d="M675.423,258.666A26.354,26.354,0,0,0,665.3,237.047c-.24.186-.479.364-.719.55a25.586,25.586,0,0,1,9.949,21.494Z" transform="translate(-653.982 -226.975)" fill="url(#linear-gradient-51)"/>
          <path id="Path_7013" data-name="Path 7013" d="M684.148,244.98c.088.32.177.64.249.977a36.1,36.1,0,0,1,.913,8.449h.888a37.79,37.79,0,0,0-.843-8.244,87.891,87.891,0,0,0,17.6,1.827,71.868,71.868,0,0,0,7.562-.39c0-.3,0-.594-.009-.887a83.679,83.679,0,0,1-25.382-1.509,21.513,21.513,0,0,0-5.545-10.073,19.167,19.167,0,0,0-5.751-3.914h-.009c-.355.159-.719.337-1.065.532a18.4,18.4,0,0,1,6.212,4.02A20.389,20.389,0,0,1,684.148,244.98Z" transform="translate(-651.57 -228.696)" fill="url(#linear-gradient-52)"/>
          <path id="Path_7014" data-name="Path 7014" d="M680.411,253.8c-2.006-.515-3.55-1-4.508-1.324l-1.163.55c.622.223,2.405.843,5.024,1.545a80.418,80.418,0,0,0,20.322,2.786,65.658,65.658,0,0,0,9.257-.638c.026-.3.044-.594.061-.9C697.885,257.512,686.81,255.462,680.411,253.8Z" transform="translate(-650.983 -222.422)" fill="url(#linear-gradient-53)"/>
          <path id="Path_7015" data-name="Path 7015" d="M669.183,264.524l-.905-.267c-.053-.017-.115-.035-.168-.053l-.009.923c.249.088.488.159.737.222,15.024,4.446,26.765,5.83,35.587,5.83,1.917,0,3.709-.062,5.351-.185.035-.329.071-.658.106-.995C700.75,270.674,687.34,269.866,669.183,264.524Z" transform="translate(-652.943 -218.962)" fill="url(#linear-gradient-54)"/>
          <path id="Path_7016" data-name="Path 7016" d="M667.9,278.026l-.009.94a88.023,88.023,0,0,0,26.474,4.411,62.064,62.064,0,0,0,13.649-1.456c.044-.293.08-.613.124-.94C692.433,284.611,676.716,280.919,667.9,278.026Z" transform="translate(-653.003 -214.884)" fill="url(#linear-gradient-55)"/>
        </g>
        <path id="Path_7017" data-name="Path 7017" d="M687.576,249.122l-5.2,5.671-.648.772-13.646,15.589.194-13.161,8.428-3.973,1.163-.55Z" transform="translate(-647.676 -222.187)" opacity="0.5" fill="url(#linear-gradient-56)" style="mix-blend-mode: multiply;isolation: isolate"/>
      </g>
      <path id="Path_7018" data-name="Path 7018" d="M710.426,230.343a1.9,1.9,0,0,1,.329.181c-1.7-.781-12.286-.953-25.251,4.2-11.328,4.5-30.876,21.819-30.876,21.819l-2.3-4.157s.645-.51,1.743-1.359c.905-.7,2.128-1.653,3.53-2.739.215-.18.464-.35.7-.543h.012c1.357-1.063,2.874-2.23,4.447-3.44,1.789-1.37,3.656-2.784,5.432-4.143.238-.181.487-.361.725-.543,3.791-2.863,7.13-5.331,8.634-6.3a13.316,13.316,0,0,1,1.223-.712h.012a11.7,11.7,0,0,1,1.063-.543h.012a32.548,32.548,0,0,1,6.1-2.072c1.087-.271,1.878-.4,2.162-.442a.646.646,0,0,0,.1-.022S702.391,226.337,710.426,230.343Z" transform="translate(-594.513 -176)" fill="url(#linear-gradient-57)" style="mix-blend-mode: screen;isolation: isolate"/>
      <g id="Group_6852" data-name="Group 6852" transform="translate(0.655 52.636)">
        <path id="Path_7019" data-name="Path 7019" d="M619,236.144a.308.308,0,0,1-.249-.123,18.906,18.906,0,0,0-1.922-2.206c-.8-.7-5.558-4.662-5.606-4.7a.309.309,0,0,1,.4-.475c.2.164,4.818,4.012,5.618,4.713a19.3,19.3,0,0,1,2.01,2.3.31.31,0,0,1-.247.5Z" transform="translate(-607.328 -228.565)" fill="#e4a2b6"/>
        <path id="Path_7020" data-name="Path 7020" d="M616.669,236.979a.313.313,0,0,1-.264-.145,16.212,16.212,0,0,0-1.558-2.071c-.784-.829-5.461-4.508-5.509-4.546a.313.313,0,0,1-.052-.436.308.308,0,0,1,.436-.051c.193.153,4.762,3.745,5.575,4.608a16.74,16.74,0,0,1,1.634,2.165.312.312,0,0,1-.1.429A.32.32,0,0,1,616.669,236.979Z" transform="translate(-607.886 -228.241)" fill="#e4a2b6"/>
        <path id="Path_7021" data-name="Path 7021" d="M615.376,238.635a.309.309,0,0,1-.263-.148,19.533,19.533,0,0,0-2.16-2.9c-.794-.7-4.613-3.885-4.652-3.918a.309.309,0,1,1,.4-.474c.04.031,3.863,3.226,4.663,3.925a19.466,19.466,0,0,1,2.279,3.045.308.308,0,0,1-.1.426A.3.3,0,0,1,615.376,238.635Z" transform="translate(-608.19 -227.811)" fill="#e4a2b6"/>
      </g>
    </g>
  </g>
</svg>
