<svg xmlns="http://www.w3.org/2000/svg" xmlns:xlink="http://www.w3.org/1999/xlink" width="575.317" height="471.187" viewBox="0 0 575.317 471.187">
  <defs>
    <linearGradient id="linear-gradient" y1="0.5" x2="1" y2="0.5" gradientUnits="objectBoundingBox">
      <stop offset="0" stop-color="#00e7b0"/>
      <stop offset="1" stop-color="#3de861"/>
    </linearGradient>
    <linearGradient id="linear-gradient-2" x1="-0.066" y1="0.517" x2="0.948" y2="0.517" gradientUnits="objectBoundingBox">
      <stop offset="0" stop-color="#11b8c9"/>
      <stop offset="1" stop-color="#8861e0"/>
    </linearGradient>
    <linearGradient id="linear-gradient-3" x1="0.039" y1="0.039" x2="0.961" y2="0.961" gradientUnits="objectBoundingBox">
      <stop offset="0" stop-color="#00e7b0"/>
      <stop offset="1" stop-color="#1dd8ca"/>
    </linearGradient>
    <linearGradient id="linear-gradient-7" x1="0.039" y1="0.039" x2="0.961" y2="0.961" gradientUnits="objectBoundingBox">
      <stop offset="0" stop-color="#c797ff"/>
      <stop offset="1" stop-color="#ff6994"/>
    </linearGradient>
    <linearGradient id="linear-gradient-8" x1="0" y1="0.5" x2="1" y2="0.5" xlink:href="#linear-gradient-7"/>
    <linearGradient id="linear-gradient-14" x1="0" y1="0.5" x2="1" y2="0.5" xlink:href="#linear-gradient-2"/>
    <linearGradient id="linear-gradient-16" x1="0" y1="0.5" x2="1" y2="0.5" xlink:href="#linear-gradient-2"/>
    <linearGradient id="linear-gradient-17" x1="0" y1="0.5" x2="1" y2="0.5" xlink:href="#linear-gradient-2"/>
    <linearGradient id="linear-gradient-19" x1="-0.146" y1="0.135" x2="0.676" y2="0.892" xlink:href="#linear-gradient-2"/>
    <linearGradient id="linear-gradient-20" x1="-0.146" y1="0.135" x2="0.676" y2="0.892" xlink:href="#linear-gradient-2"/>
    <linearGradient id="linear-gradient-21" x1="0.339" y1="0.148" x2="1.131" y2="0.879" xlink:href="#linear-gradient-2"/>
    <linearGradient id="linear-gradient-22" x1="0.339" y1="0.148" x2="1.131" y2="0.879" xlink:href="#linear-gradient-2"/>
    <linearGradient id="linear-gradient-24" x1="0.339" y1="0.148" x2="1.131" y2="0.879" xlink:href="#linear-gradient-2"/>
    <linearGradient id="linear-gradient-25" x1="0" y1="0.5" x2="1" y2="0.5" xlink:href="#linear-gradient-2"/>
  </defs>
  <g id="Group_6933" data-name="Group 6933" transform="translate(-37.537 -101.508)">
    <g id="Group_6890" data-name="Group 6890" transform="translate(37.662 144.994)">
      <path id="Path_7028" data-name="Path 7028" d="M546.032,380.67c-19.557,97.654-204.925,131.585-300.519,117.281C145.99,483.058,70.389,421.689,70.389,327.613S149,163.384,245.513,157.277C377.893,148.9,565.978,281.073,546.032,380.67Z" transform="translate(-24.524 -122.759)" fill="url(#linear-gradient)"/>
      <path id="Path_7029" data-name="Path 7029" d="M529.181,270.589c23.184,92.084-122.493,197.264-210.65,224.125-91.783,27.966-182.017,6.115-220.571-74.873s.37-173.6,80.955-218.411C289.447,139.965,505.536,176.671,529.181,270.589Z" transform="translate(-19.475 -117.03)" fill="url(#linear-gradient-2)"/>
      <g id="Group_6889" data-name="Group 6889">
        <path id="Path_7030" data-name="Path 7030" d="M550.291,318.647c3.2-14.337,3.408-28.675-.13-42.724-14.089-55.962-92.991-92.648-179.978-102.278-42.017-16.618-85.492-25.684-124.4-23.222C144.028,156.861,61.153,230.823,61.153,330c0,37.933,11.67,70.815,31.939,97.847.786,1.812,1.593,3.623,2.451,5.424,40.646,85.383,135.776,108.419,232.539,78.936.783-.238,1.584-.5,2.377-.748,99.435-7.709,216.446-47.143,232.144-125.523C566.911,364.425,562,341.472,550.291,318.647Z" transform="translate(-28.232 -125.518)" fill="none" stroke="#707070" stroke-miterlimit="10" stroke-width="1"/>
        <path id="Path_7031" data-name="Path 7031" d="M567.163,320.557c3.37-15.117,3.595-30.237-.136-45.052-14.857-59.01-98.057-97.694-189.786-107.851-44.305-17.525-90.149-27.084-131.18-24.487-107.3,6.79-194.685,84.781-194.685,189.364,0,40,12.3,74.671,33.678,103.178.83,1.91,1.682,3.819,2.586,5.719,42.86,90.034,143.172,114.325,245.208,83.236.827-.251,1.669-.526,2.506-.79,104.853-8.128,228.24-49.71,244.792-132.36C584.689,368.829,579.512,344.625,567.163,320.557Z" transform="translate(-32.157 -128.44)" fill="none" stroke="#707070" stroke-miterlimit="10" stroke-width="0.5"/>
        <path id="Path_7032" data-name="Path 7032" d="M590.828,323.235c3.616-16.212,3.855-32.428-.146-48.317-15.933-63.286-105.164-104.773-203.539-115.665-47.516-18.795-96.682-29.048-140.688-26.263C131.386,140.271,37.662,223.915,37.662,336.076c0,42.9,13.2,80.084,36.119,110.656.889,2.049,1.8,4.1,2.772,6.133,45.967,96.56,153.55,122.612,262.978,89.269.887-.271,1.791-.563,2.688-.846C454.671,532.569,587,487.972,604.753,399.333,609.625,375.005,604.073,349.048,590.828,323.235Z" transform="translate(-37.662 -132.538)" fill="none" stroke="#707070" stroke-miterlimit="10" stroke-width="0.25"/>
      </g>
    </g>
    <g id="Group_6902" data-name="Group 6902" transform="translate(141.453 209.582)">
      <rect id="Rectangle_1238" data-name="Rectangle 1238" width="62.212" height="50.248" transform="translate(150.147 237.483)" fill="#c9e3f4"/>
      <path id="Rectangle_1239" data-name="Rectangle 1239" d="M3.041,0H163.256A3.041,3.041,0,0,1,166.3,3.041v3.24a0,0,0,0,1,0,0H0a0,0,0,0,1,0,0V3.041A3.041,3.041,0,0,1,3.041,0Z" transform="translate(98.104 281.45)" fill="#c9e3f4"/>
      <rect id="Rectangle_1240" data-name="Rectangle 1240" width="62.212" height="11.067" transform="translate(150.147 237.483)" fill="#9abdcc"/>
      <rect id="Rectangle_1241" data-name="Rectangle 1241" width="362.505" height="241.67" rx="5.229" fill="#c9e3f4"/>
      <rect id="Rectangle_1242" data-name="Rectangle 1242" width="334.988" height="214.751" transform="translate(13.758 11.964)" fill="#80c0ff"/>
      <g id="Group_6901" data-name="Group 6901" transform="translate(20.638 19.23)">
        <rect id="Rectangle_1243" data-name="Rectangle 1243" width="321.23" height="25.647" fill="#345c8c"/>
        <rect id="Rectangle_1244" data-name="Rectangle 1244" width="321.23" height="22.832" transform="translate(0 177.273)" fill="#345c8c"/>
        <rect id="Rectangle_1245" data-name="Rectangle 1245" width="321.23" height="75.658" transform="translate(0 34.239)" fill="#345c8c"/>
        <rect id="Rectangle_1246" data-name="Rectangle 1246" width="87.329" height="47.703" transform="translate(0 119.387)" fill="#345c8c"/>
        <rect id="Rectangle_1247" data-name="Rectangle 1247" width="87.329" height="47.703" transform="translate(116.951 119.387)" fill="#345c8c"/>
        <rect id="Rectangle_1248" data-name="Rectangle 1248" width="87.329" height="47.703" transform="translate(233.901 119.387)" fill="#345c8c"/>
        <g id="Group_6900" data-name="Group 6900" transform="translate(20.122 9.886)">
          <g id="Group_6892" data-name="Group 6892" transform="translate(116.93)">
            <g id="Group_6891" data-name="Group 6891">
              <path id="Path_7033" data-name="Path 7033" d="M231.163,208.984h-.673v-4.7h-5.582v4.7h-.666v-9.555h.666v4.242h5.582v-4.242h.673Z" transform="translate(-224.243 -199.39)" fill="#fff"/>
              <path id="Path_7034" data-name="Path 7034" d="M237.289,208.984h-5.222v-9.555h5.222v.615h-4.556v3.614h4.3v.614h-4.3v4.1h4.556Z" transform="translate(-221.102 -199.39)" fill="#fff"/>
              <path id="Path_7035" data-name="Path 7035" d="M243.279,205.623H239.4L238.065,209h-.739l3.843-9.594h.425L245.358,209h-.751Zm-3.64-.6h3.418l-1.3-3.445c-.109-.27-.241-.645-.392-1.124a10.659,10.659,0,0,1-.385,1.138Z" transform="translate(-218.991 -199.401)" fill="#fff"/>
              <path id="Path_7036" data-name="Path 7036" d="M252.233,204.115a4.862,4.862,0,0,1-1.261,3.637,5.1,5.1,0,0,1-3.705,1.232h-2.287v-9.555h2.581a4.19,4.19,0,0,1,4.672,4.686Zm-.726.027a3.658,3.658,0,0,0-4.1-4.124h-1.759V208.4h1.582Q251.507,208.4,251.507,204.142Z" transform="translate(-215.919 -199.39)" fill="#fff"/>
              <path id="Path_7037" data-name="Path 7037" d="M257.9,208.984h-5.222v-9.555H257.9v.615h-4.556v3.614h4.3v.614h-4.3v4.1H257.9Z" transform="translate(-212.829 -199.39)" fill="#fff"/>
              <path id="Path_7038" data-name="Path 7038" d="M259.568,204.822v4.162H258.9v-9.555h2.275a4.294,4.294,0,0,1,2.628.657,2.344,2.344,0,0,1,.849,1.977,2.581,2.581,0,0,1-.506,1.62,2.827,2.827,0,0,1-1.54.947l2.6,4.353h-.8l-2.464-4.162Zm0-.576h1.823a2.9,2.9,0,0,0,1.875-.54,1.923,1.923,0,0,0,.667-1.591,1.865,1.865,0,0,0-.653-1.588,3.576,3.576,0,0,0-2.132-.5h-1.581Z" transform="translate(-210.33 -199.39)" fill="#fff"/>
            </g>
          </g>
          <g id="Group_6894" data-name="Group 6894" transform="translate(113.919 56.774)">
            <g id="Group_6893" data-name="Group 6893">
              <path id="Path_7039" data-name="Path 7039" d="M228,247.149a2.292,2.292,0,0,1-.879,1.895,3.642,3.642,0,0,1-2.336.7,7.294,7.294,0,0,1-2.687-.387v-.666a6.808,6.808,0,0,0,2.635.437,2.947,2.947,0,0,0,1.865-.54,1.707,1.707,0,0,0,.69-1.414,1.64,1.64,0,0,0-.228-.9,2.067,2.067,0,0,0-.746-.65,9.212,9.212,0,0,0-1.516-.635,5.192,5.192,0,0,1-2.022-1.088,2.162,2.162,0,0,1-.559-1.56,2.136,2.136,0,0,1,.841-1.748,3.328,3.328,0,0,1,2.16-.675,6.332,6.332,0,0,1,2.528.509l-.241.575a5.907,5.907,0,0,0-2.275-.5,2.665,2.665,0,0,0-1.686.49,1.6,1.6,0,0,0-.628,1.333,1.738,1.738,0,0,0,.193.869,1.766,1.766,0,0,0,.631.612,8.833,8.833,0,0,0,1.5.65,8.02,8.02,0,0,1,1.68.748,2.388,2.388,0,0,1,.82.823A2.262,2.262,0,0,1,228,247.149Z" transform="translate(-222.094 -239.908)" fill="#fff"/>
              <path id="Path_7040" data-name="Path 7040" d="M233.923,249.574H228.7v-9.555h5.222v.615h-4.555v3.614h4.3v.614h-4.3v4.1h4.555Z" transform="translate(-219.442 -239.869)" fill="#fff"/>
              <path id="Path_7041" data-name="Path 7041" d="M239.149,240.523a3.611,3.611,0,0,0-2.83,1.149,4.549,4.549,0,0,0-1.033,3.15,4.718,4.718,0,0,0,.974,3.176,3.473,3.473,0,0,0,2.785,1.131,7.546,7.546,0,0,0,2.209-.307v.589a7.226,7.226,0,0,1-2.366.334,4.028,4.028,0,0,1-3.17-1.3,5.277,5.277,0,0,1-1.156-3.633,5.7,5.7,0,0,1,.552-2.569,3.979,3.979,0,0,1,1.588-1.715,4.686,4.686,0,0,1,2.408-.6,5.8,5.8,0,0,1,2.5.521l-.269.6A4.843,4.843,0,0,0,239.149,240.523Z" transform="translate(-217.089 -239.908)" fill="#fff"/>
              <path id="Path_7042" data-name="Path 7042" d="M244.672,249.574H244v-8.927h-3.1v-.628h6.881v.628h-3.1Z" transform="translate(-214.547 -239.869)" fill="#fff"/>
              <path id="Path_7043" data-name="Path 7043" d="M247.772,249.574v-9.555h.667v9.555Z" transform="translate(-211.786 -239.869)" fill="#fff"/>
              <path id="Path_7044" data-name="Path 7044" d="M259.311,244.827a5.334,5.334,0,0,1-1.137,3.6,4.369,4.369,0,0,1-6.267,0,5.354,5.354,0,0,1-1.138-3.61,5.264,5.264,0,0,1,1.148-3.592,3.948,3.948,0,0,1,3.134-1.31,3.906,3.906,0,0,1,3.131,1.317A5.346,5.346,0,0,1,259.311,244.827Zm-7.816,0A4.9,4.9,0,0,0,252.41,248a3.661,3.661,0,0,0,5.264.01,4.9,4.9,0,0,0,.912-3.183,4.844,4.844,0,0,0-.912-3.166,3.672,3.672,0,0,0-5.254.01A4.8,4.8,0,0,0,251.495,244.827Z" transform="translate(-210.583 -239.912)" fill="#fff"/>
              <path id="Path_7045" data-name="Path 7045" d="M266.333,249.574h-.673L260,241.091h-.052c.052,1.01.078,1.774.078,2.287v6.2h-.64v-9.555h.667l5.653,8.47h.039q-.059-1.177-.059-2.235v-6.235h.646Z" transform="translate(-207.124 -239.869)" fill="#fff"/>
            </g>
          </g>
          <g id="Group_6896" data-name="Group 6896" transform="translate(121.76 175.988)">
            <g id="Group_6895" data-name="Group 6895">
              <path id="Path_7046" data-name="Path 7046" d="M228.241,332.992h-.552v-7.925h4.342v.509h-3.79v3.362h3.578v.514h-3.578Z" transform="translate(-227.689 -324.942)" fill="#fff"/>
              <path id="Path_7047" data-name="Path 7047" d="M239.241,329.055a4.428,4.428,0,0,1-.943,2.985,3.631,3.631,0,0,1-5.2,0,4.444,4.444,0,0,1-.943-3,4.379,4.379,0,0,1,.952-2.979,3.28,3.28,0,0,1,2.6-1.086,3.235,3.235,0,0,1,2.6,1.093A4.422,4.422,0,0,1,239.241,329.055Zm-6.484,0a4.051,4.051,0,0,0,.761,2.632,3.038,3.038,0,0,0,4.365.008,4.065,4.065,0,0,0,.755-2.64,4.015,4.015,0,0,0-.755-2.626,3.049,3.049,0,0,0-4.358.008A3.986,3.986,0,0,0,232.756,329.055Z" transform="translate(-225.896 -324.978)" fill="#fff"/>
              <path id="Path_7048" data-name="Path 7048" d="M246.085,329.055a4.427,4.427,0,0,1-.942,2.985,3.631,3.631,0,0,1-5.2,0,4.444,4.444,0,0,1-.943-3,4.379,4.379,0,0,1,.952-2.979,3.28,3.28,0,0,1,2.6-1.086,3.235,3.235,0,0,1,2.6,1.093A4.421,4.421,0,0,1,246.085,329.055Zm-6.483,0a4.059,4.059,0,0,0,.76,2.632,3.04,3.04,0,0,0,4.367.008,4.065,4.065,0,0,0,.755-2.64,4.016,4.016,0,0,0-.755-2.626,3.049,3.049,0,0,0-4.358.008A3.986,3.986,0,0,0,239.6,329.055Z" transform="translate(-223.148 -324.978)" fill="#fff"/>
              <path id="Path_7049" data-name="Path 7049" d="M248.521,332.992h-.559v-7.4h-2.574v-.521H251.1v.521h-2.574Z" transform="translate(-220.584 -324.942)" fill="#fff"/>
              <path id="Path_7050" data-name="Path 7050" d="M255.423,332.992h-4.332v-7.925h4.332v.509h-3.78v3h3.567v.509h-3.567v3.4h3.78Z" transform="translate(-218.295 -324.942)" fill="#fff"/>
              <path id="Path_7051" data-name="Path 7051" d="M256.807,329.54v3.452h-.552v-7.925h1.885a3.55,3.55,0,0,1,2.179.545,1.939,1.939,0,0,1,.7,1.638,2.133,2.133,0,0,1-.42,1.345,2.327,2.327,0,0,1-1.275.786l2.151,3.61h-.662l-2.042-3.452Zm0-.478h1.512a2.419,2.419,0,0,0,1.556-.447,1.594,1.594,0,0,0,.552-1.32,1.549,1.549,0,0,0-.541-1.317,2.956,2.956,0,0,0-1.767-.412h-1.312Z" transform="translate(-216.222 -324.942)" fill="#fff"/>
            </g>
          </g>
          <g id="Group_6897" data-name="Group 6897" transform="translate(0 131.482)">
            <path id="Path_7052" data-name="Path 7052" d="M145.785,298.481h-3.246l-1.116,2.82h-.617l3.214-8.022h.355l3.149,8.022h-.629Zm-3.044-.5H145.6l-1.086-2.88c-.091-.224-.2-.538-.328-.939a8.747,8.747,0,0,1-.322.952Z" transform="translate(-140.807 -293.196)" fill="#fff"/>
            <path id="Path_7053" data-name="Path 7053" d="M147.76,297.81v3.481H147.2V293.3h1.9a3.585,3.585,0,0,1,2.2.549,1.96,1.96,0,0,1,.711,1.654,2.157,2.157,0,0,1-.425,1.355,2.358,2.358,0,0,1-1.287.792l2.171,3.639H151.8l-2.059-3.481Zm0-.481h1.526a2.436,2.436,0,0,0,1.568-.451,1.608,1.608,0,0,0,.558-1.33,1.562,1.562,0,0,0-.548-1.329,2.982,2.982,0,0,0-1.78-.415H147.76Z" transform="translate(-138.239 -293.187)" fill="#fff"/>
            <path id="Path_7054" data-name="Path 7054" d="M155.14,301.292h-.563v-7.465h-2.6V293.3h5.754v.524H155.14Z" transform="translate(-136.322 -293.187)" fill="#fff"/>
            <path id="Path_7055" data-name="Path 7055" d="M157.731,301.292V293.3h.558v7.99Z" transform="translate(-134.013 -293.187)" fill="#fff"/>
            <path id="Path_7056" data-name="Path 7056" d="M164.073,293.723a3.022,3.022,0,0,0-2.366.961,3.8,3.8,0,0,0-.862,2.633,3.95,3.95,0,0,0,.813,2.657,2.9,2.9,0,0,0,2.328.945,6.316,6.316,0,0,0,1.847-.256v.492a6.011,6.011,0,0,1-1.977.279,3.369,3.369,0,0,1-2.652-1.088,4.422,4.422,0,0,1-.967-3.038,4.784,4.784,0,0,1,.462-2.148,3.331,3.331,0,0,1,1.329-1.434,3.92,3.92,0,0,1,2.012-.506,4.811,4.811,0,0,1,2.092.439l-.223.5A4.061,4.061,0,0,0,164.073,293.723Z" transform="translate(-133.007 -293.22)" fill="#fff"/>
            <path id="Path_7057" data-name="Path 7057" d="M166.3,301.292V293.3h.558v7.465h3.811v.524Z" transform="translate(-130.573 -293.187)" fill="#fff"/>
            <path id="Path_7058" data-name="Path 7058" d="M175.564,301.292H171.2V293.3h4.367v.514h-3.811v3.022h3.6v.514h-3.6v3.427h3.811Z" transform="translate(-128.607 -293.187)" fill="#fff"/>
          </g>
          <g id="Group_6898" data-name="Group 6898" transform="translate(120.022 131.482)">
            <path id="Path_7059" data-name="Path 7059" d="M231.427,298.481H228.18l-1.114,2.82h-.617l3.214-8.022h.355l3.149,8.022h-.629Zm-3.044-.5h2.858l-1.086-2.88c-.091-.224-.2-.538-.329-.939a8.766,8.766,0,0,1-.321.952Z" transform="translate(-226.449 -293.196)" fill="#fff"/>
            <path id="Path_7060" data-name="Path 7060" d="M233.4,297.81v3.481h-.556V293.3h1.9a3.588,3.588,0,0,1,2.2.549,1.96,1.96,0,0,1,.711,1.654,2.166,2.166,0,0,1-.425,1.355,2.358,2.358,0,0,1-1.287.792l2.171,3.639h-.668l-2.059-3.481Zm0-.481h1.526a2.441,2.441,0,0,0,1.568-.451,1.608,1.608,0,0,0,.558-1.33,1.562,1.562,0,0,0-.548-1.329,2.985,2.985,0,0,0-1.78-.415H233.4Z" transform="translate(-223.881 -293.187)" fill="#fff"/>
            <path id="Path_7061" data-name="Path 7061" d="M240.782,301.292h-.563v-7.465h-2.6V293.3h5.754v.524h-2.594Z" transform="translate(-221.964 -293.187)" fill="#fff"/>
            <path id="Path_7062" data-name="Path 7062" d="M243.373,301.292V293.3h.558v7.99Z" transform="translate(-219.655 -293.187)" fill="#fff"/>
            <path id="Path_7063" data-name="Path 7063" d="M249.715,293.723a3.018,3.018,0,0,0-2.366.961,3.8,3.8,0,0,0-.863,2.633,3.951,3.951,0,0,0,.814,2.657,2.9,2.9,0,0,0,2.328.945,6.315,6.315,0,0,0,1.847-.256v.492a6.011,6.011,0,0,1-1.977.279,3.369,3.369,0,0,1-2.652-1.088,4.415,4.415,0,0,1-.967-3.038,4.766,4.766,0,0,1,.462-2.148,3.336,3.336,0,0,1,1.327-1.434,3.929,3.929,0,0,1,2.014-.506,4.811,4.811,0,0,1,2.092.439l-.224.5A4.051,4.051,0,0,0,249.715,293.723Z" transform="translate(-218.649 -293.22)" fill="#fff"/>
            <path id="Path_7064" data-name="Path 7064" d="M251.942,301.292V293.3h.558v7.465h3.809v.524Z" transform="translate(-216.215 -293.187)" fill="#fff"/>
            <path id="Path_7065" data-name="Path 7065" d="M261.206,301.292h-4.367V293.3h4.367v.514H257.4v3.022h3.6v.514h-3.6v3.427h3.811Z" transform="translate(-214.249 -293.187)" fill="#fff"/>
          </g>
          <g id="Group_6899" data-name="Group 6899" transform="translate(233.627 131.482)">
            <path id="Path_7066" data-name="Path 7066" d="M312.491,298.481h-3.247l-1.114,2.82h-.618l3.214-8.022h.355l3.149,8.022H313.6Zm-3.044-.5H312.3l-1.088-2.88c-.091-.224-.2-.538-.328-.939a8.743,8.743,0,0,1-.322.952Z" transform="translate(-307.512 -293.196)" fill="#fff"/>
            <path id="Path_7067" data-name="Path 7067" d="M314.467,297.81v3.481h-.558V293.3h1.9a3.585,3.585,0,0,1,2.2.549,1.96,1.96,0,0,1,.71,1.654,2.158,2.158,0,0,1-.425,1.355,2.354,2.354,0,0,1-1.285.792l2.169,3.639h-.669l-2.059-3.481Zm0-.481h1.526a2.442,2.442,0,0,0,1.568-.451,1.611,1.611,0,0,0,.556-1.33,1.561,1.561,0,0,0-.547-1.329,2.987,2.987,0,0,0-1.781-.415h-1.323Z" transform="translate(-304.944 -293.187)" fill="#fff"/>
            <path id="Path_7068" data-name="Path 7068" d="M321.845,301.292h-.563v-7.465h-2.6V293.3h5.754v.524h-2.6Z" transform="translate(-303.026 -293.187)" fill="#fff"/>
            <path id="Path_7069" data-name="Path 7069" d="M324.437,301.292V293.3h.556v7.99Z" transform="translate(-300.718 -293.187)" fill="#fff"/>
            <path id="Path_7070" data-name="Path 7070" d="M330.779,293.723a3.018,3.018,0,0,0-2.366.961,3.8,3.8,0,0,0-.863,2.633,3.943,3.943,0,0,0,.814,2.657,2.9,2.9,0,0,0,2.328.945,6.306,6.306,0,0,0,1.846-.256v.492a6,6,0,0,1-1.976.279,3.374,3.374,0,0,1-2.653-1.088,4.423,4.423,0,0,1-.967-3.038,4.785,4.785,0,0,1,.462-2.148,3.331,3.331,0,0,1,1.329-1.434,3.924,3.924,0,0,1,2.012-.506,4.821,4.821,0,0,1,2.094.439l-.224.5A4.051,4.051,0,0,0,330.779,293.723Z" transform="translate(-299.712 -293.22)" fill="#fff"/>
            <path id="Path_7071" data-name="Path 7071" d="M333.006,301.292V293.3h.556v7.465h3.81v.524Z" transform="translate(-297.278 -293.187)" fill="#fff"/>
            <path id="Path_7072" data-name="Path 7072" d="M342.27,301.292H337.9V293.3h4.368v.514H338.46v3.022h3.6v.514h-3.6v3.427h3.811Z" transform="translate(-295.312 -293.187)" fill="#fff"/>
          </g>
        </g>
      </g>
    </g>
    <g id="Group_6925" data-name="Group 6925" transform="translate(93.521 101.508)">
      <g id="Group_6904" data-name="Group 6904" transform="translate(281.038 68.681)">
        <rect id="Rectangle_1249" data-name="Rectangle 1249" width="42.648" height="42.648" rx="4.047" fill="url(#linear-gradient-3)"/>
        <g id="Group_6903" data-name="Group 6903" transform="translate(3.1 10.9)">
          <path id="Path_7073" data-name="Path 7073" d="M280.268,176.577a1.9,1.9,0,0,0,1.9,1.9h32.648a1.9,1.9,0,0,0,1.9-1.9V162.491H280.268Z" transform="translate(-280.268 -156.608)" fill="#fff"/>
          <path id="Path_7074" data-name="Path 7074" d="M314.816,158.293H282.168a1.9,1.9,0,0,0-1.9,1.9v1.484h36.449v-1.484A1.9,1.9,0,0,0,314.816,158.293Z" transform="translate(-280.268 -158.293)" fill="#fff"/>
        </g>
      </g>
      <g id="Group_6906" data-name="Group 6906" transform="translate(95.665 18.253)">
        <rect id="Rectangle_1250" data-name="Rectangle 1250" width="66.977" height="66.977" rx="6.356" fill="url(#linear-gradient-3)"/>
        <g id="Group_6905" data-name="Group 6905" transform="translate(7.171 9.771)">
          <path id="Path_7075" data-name="Path 7075" d="M198.224,121.5H156.208l-2.654,6.836-2.654,6.836v4.761a4.386,4.386,0,1,0,8.772,0,4.386,4.386,0,0,0,8.773,0,4.384,4.384,0,0,0,4.387,4.386h0a4.384,4.384,0,0,0,4.386-4.386,4.386,4.386,0,1,0,8.772,0,4.385,4.385,0,0,0,4.387,4.386h0a4.388,4.388,0,0,0,4.387-4.386,4.386,4.386,0,0,0,8.773,0v-4.761Zm-.527.771,4.71,12.131h-7.051l-3.141-12.131Zm-19.711,0h5.555l1.571,12.131h-7.126Zm-14.178,0h5.53l-1.571,12.131h-7.1Zm3.865,17.662a3.616,3.616,0,0,1-7.231,0v-3.991h7.231Zm17.546,0a3.616,3.616,0,0,1-7.233,0v-3.991h7.233Zm17.545,0a3.616,3.616,0,0,1-7.233,0v-3.991h7.233Z" transform="translate(-150.899 -121.505)" fill="#fff"/>
          <path id="Path_7076" data-name="Path 7076" d="M199.148,141.341a7.428,7.428,0,0,1-4.386-1.427,7.457,7.457,0,0,1-8.773,0,7.455,7.455,0,0,1-8.772,0,7.457,7.457,0,0,1-8.773,0,7.457,7.457,0,0,1-8.773,0,7.4,7.4,0,0,1-8.772-.027v21.673h13.8v-9.629h25.034v9.629h13.8V139.888A7.4,7.4,0,0,1,199.148,141.341Z" transform="translate(-150.899 -114.125)" fill="#fff"/>
        </g>
      </g>
      <g id="Group_6907" data-name="Group 6907" transform="translate(1.578 90.665)">
        <rect id="Rectangle_1251" data-name="Rectangle 1251" width="57.89" height="57.89" rx="5.494" fill="url(#linear-gradient-3)"/>
        <path id="Path_7077" data-name="Path 7077" d="M105.511,171.19a21.956,21.956,0,1,0,21.956,21.956A21.981,21.981,0,0,0,105.511,171.19Zm12.278,21.176a37.569,37.569,0,0,0-1.019-8.158c5.112,1.788,8.608,4.755,9.076,8.158Zm-1.561,0h-9.936V182.43a35.444,35.444,0,0,1,8.71,1.226A35.444,35.444,0,0,1,116.228,192.366Zm-9.936-11.5v-8.057c3.4.468,6.37,3.963,8.158,9.076A37.656,37.656,0,0,0,106.292,180.868Zm-1.561-8.057v8.057a37.654,37.654,0,0,0-8.156,1.019C98.362,176.775,101.328,173.28,104.73,172.811Zm0,9.618v9.936H94.8a35.444,35.444,0,0,1,1.226-8.71A35.422,35.422,0,0,1,104.73,182.43Zm-11.5,9.936H85.177c.468-3.4,3.963-6.37,9.076-8.158A37.569,37.569,0,0,0,93.234,192.366Zm0,1.561a37.556,37.556,0,0,0,1.019,8.156c-5.114-1.787-8.608-4.754-9.076-8.156Zm1.561,0h9.935v9.935a35.425,35.425,0,0,1-8.709-1.226A35.423,35.423,0,0,1,94.8,193.927Zm9.935,11.5v8.057c-3.4-.468-6.37-3.962-8.156-9.074A37.656,37.656,0,0,0,104.73,205.423Zm1.561,8.057v-8.057a37.658,37.658,0,0,0,8.158-1.017C112.661,209.518,109.694,213.012,106.292,213.48Zm0-9.618v-9.935h9.936A35.423,35.423,0,0,1,115,202.635,35.446,35.446,0,0,1,106.292,203.862Zm11.5-9.935h8.057c-.468,3.4-3.962,6.37-9.076,8.156A37.556,37.556,0,0,0,117.789,193.927Zm7.324-6.4a19.612,19.612,0,0,0-8.843-5.141,19.619,19.619,0,0,0-5.14-8.843A20.472,20.472,0,0,1,125.113,187.528Zm-25.22-13.982a19.6,19.6,0,0,0-5.139,8.842,19.612,19.612,0,0,0-8.843,5.141A20.468,20.468,0,0,1,99.893,173.546ZM85.91,198.765a19.624,19.624,0,0,0,8.843,5.14,19.613,19.613,0,0,0,5.139,8.842A20.473,20.473,0,0,1,85.91,198.765Zm25.219,13.982a19.614,19.614,0,0,0,5.14-8.842,19.624,19.624,0,0,0,8.843-5.14A20.472,20.472,0,0,1,111.129,212.747Z" transform="translate(-76.675 -164.201)" fill="#fff"/>
      </g>
      <g id="Group_6909" data-name="Group 6909" transform="translate(447.892 184.687)">
        <rect id="Rectangle_1252" data-name="Rectangle 1252" width="51.604" height="51.604" rx="4.897" fill="url(#linear-gradient-3)"/>
        <g id="Group_6908" data-name="Group 6908" transform="translate(5.653 5.28)">
          <path id="Path_7078" data-name="Path 7078" d="M429.574,262.533H411.445a3.59,3.59,0,0,1-3.589-3.59V247.629a3.59,3.59,0,0,1,3.589-3.589h20.23a3.589,3.589,0,0,1,3.529,4.245L433.1,259.6A3.59,3.59,0,0,1,429.574,262.533Z" transform="translate(-398.456 -234.257)" fill="#fff"/>
          <path id="Path_7079" data-name="Path 7079" d="M440.7,267.663H409.44a.124.124,0,0,1-.125-.123V244.946l-5.389-7.264a1.541,1.541,0,1,0-2.475,1.836l4.782,6.447V267.54a3.21,3.21,0,0,0,3.207,3.206h.96a4.057,4.057,0,1,0,6.36,0h11.209a4.059,4.059,0,1,0,6.36,0H440.7a1.542,1.542,0,1,0,0-3.083Z" transform="translate(-401.148 -237.059)" fill="#fff"/>
        </g>
      </g>
      <g id="Group_6911" data-name="Group 6911" transform="translate(223.826)">
        <rect id="Rectangle_1253" data-name="Rectangle 1253" width="51.604" height="51.604" rx="4.897" fill="url(#linear-gradient-7)"/>
        <g id="Group_6910" data-name="Group 6910" transform="translate(9.805 11.818)">
          <path id="Path_7080" data-name="Path 7080" d="M247.478,140.63a15.373,15.373,0,0,1-3.25-.332v-4.867c.338.063.7.135,1.078.214a6.131,6.131,0,0,0,1.237.119,2.534,2.534,0,0,0,2.218-.936,5.727,5.727,0,0,0,.666-3.2V110.178h6.294v20.909q0,4.707-2.062,7.125T247.478,140.63Z" transform="translate(-244.228 -109.846)" fill="#fff"/>
          <path id="Path_7081" data-name="Path 7081" d="M270.564,126.411a6.831,6.831,0,0,1-1.095,3.829,7.158,7.158,0,0,1-3.155,2.6,11.693,11.693,0,0,1-4.835.928,19.622,19.622,0,0,1-3.883-.325,14.411,14.411,0,0,1-3.265-1.134v-5.581a18.585,18.585,0,0,0,3.725,1.435,13.892,13.892,0,0,0,3.551.516,3.45,3.45,0,0,0,2.045-.483,1.487,1.487,0,0,0,.65-1.244,1.373,1.373,0,0,0-.262-.832,3.044,3.044,0,0,0-.839-.722q-.58-.364-3.083-1.49a14.8,14.8,0,0,1-3.4-2,6.131,6.131,0,0,1-1.68-2.22,7.372,7.372,0,0,1-.547-2.964,5.939,5.939,0,0,1,2.331-4.993,10.273,10.273,0,0,1,6.4-1.791,17.992,17.992,0,0,1,7.339,1.663l-1.919,4.835a13.92,13.92,0,0,0-5.611-1.49,2.93,2.93,0,0,0-1.776.427,1.3,1.3,0,0,0-.555,1.062,1.533,1.533,0,0,0,.7,1.221,26.844,26.844,0,0,0,3.829,1.966,10.591,10.591,0,0,1,4.161,2.893A6.286,6.286,0,0,1,270.564,126.411Z" transform="translate(-240.172 -109.941)" fill="#fff"/>
        </g>
      </g>
      <g id="Group_6912" data-name="Group 6912" transform="translate(385.723 320.226)">
        <rect id="Rectangle_1254" data-name="Rectangle 1254" width="62.169" height="62.169" rx="5.9" fill="url(#linear-gradient-8)"/>
        <path id="Path_7082" data-name="Path 7082" d="M395.6,352.347h-1.022v-8.325a9.211,9.211,0,0,0-9.2-9.2H375.15a9.211,9.211,0,0,0-9.2,9.2v8.325h-1.022a3.263,3.263,0,0,0-3.263,3.263v22.2a3.263,3.263,0,0,0,3.263,3.261H395.6a3.262,3.262,0,0,0,3.263-3.261v-22.2A3.262,3.262,0,0,0,395.6,352.347Zm-15.335,19.619c-1.209,0-2.19-1.316-2.19-2.94a3.3,3.3,0,0,1,.961-2.433,2.5,2.5,0,0,1-.266-1.139c0-1.109.67-2.007,1.5-2.007s1.5.9,1.5,2.007a2.5,2.5,0,0,1-.266,1.139,3.3,3.3,0,0,1,.961,2.433C382.452,370.65,381.471,371.966,380.261,371.966Zm10.808-19.619H369.453v-8.325a5.7,5.7,0,0,1,5.7-5.7h10.224a5.7,5.7,0,0,1,5.7,5.7Z" transform="translate(-349.177 -328.074)" fill="#fff"/>
      </g>
      <g id="Group_6914" data-name="Group 6914" transform="translate(81.436 394.921)">
        <rect id="Rectangle_1255" data-name="Rectangle 1255" width="52.612" height="52.612" rx="4.993" fill="url(#linear-gradient-8)"/>
        <g id="Group_6913" data-name="Group 6913" transform="translate(10.379 5.154)">
          <path id="Path_7083" data-name="Path 7083" d="M159.842,412.1a8.746,8.746,0,1,0-4.166,0,14.738,14.738,0,0,0-12.641,14.021h29.448A14.738,14.738,0,0,0,159.842,412.1Z" transform="translate(-143.035 -383.817)" fill="#fff"/>
          <path id="Path_7084" data-name="Path 7084" d="M168.105,386.983H156.954a2,2,0,0,0-2,2v5.094a2,2,0,0,0,2,2h.851v2.185l2.185-2.185h8.116a2,2,0,0,0,2-2v-5.094A2,2,0,0,0,168.105,386.983Z" transform="translate(-138.25 -386.983)" fill="#fff"/>
        </g>
      </g>
      <g id="Group_6917" data-name="Group 6917" transform="translate(0 319.353)">
        <rect id="Rectangle_1256" data-name="Rectangle 1256" width="78.718" height="78.718" rx="7.47" fill="url(#linear-gradient-3)"/>
        <g id="Group_6916" data-name="Group 6916" transform="translate(21.303 8.675)">
          <g id="Group_6915" data-name="Group 6915" transform="translate(2.778 5.133)">
            <rect id="Rectangle_1257" data-name="Rectangle 1257" width="30.555" height="12.778" transform="translate(0 34.167)" fill="#fff"/>
            <rect id="Rectangle_1258" data-name="Rectangle 1258" width="30.555" height="12.778" transform="translate(0 17.083)" fill="#fff"/>
            <rect id="Rectangle_1259" data-name="Rectangle 1259" width="30.555" height="12.778" fill="#fff"/>
          </g>
          <path id="Path_7085" data-name="Path 7085" d="M127.331,335.574H94.223a1.5,1.5,0,0,0-1.5,1.5v58.363a1.5,1.5,0,0,0,1.5,1.5h33.108a1.5,1.5,0,0,0,1.5-1.5V337.076A1.5,1.5,0,0,0,127.331,335.574Zm-16.554,60.018a1.773,1.773,0,1,1,1.773-1.773A1.773,1.773,0,0,1,110.777,395.592Zm16.388-5.44H94.387V337.373h32.778Z" transform="translate(-92.721 -335.574)" fill="#fff"/>
        </g>
      </g>
      <g id="Group_6920" data-name="Group 6920" transform="translate(237.361 396.307)">
        <g id="Group_6918" data-name="Group 6918">
          <rect id="Rectangle_1260" data-name="Rectangle 1260" width="50.489" height="50.489" rx="4.792" fill="url(#linear-gradient-3)"/>
        </g>
        <g id="Group_6919" data-name="Group 6919" transform="translate(5.41 16.376)">
          <path id="Path_7086" data-name="Path 7086" d="M259.07,399.8a2.974,2.974,0,0,0-2.6,1.362,6.592,6.592,0,0,0-.932,3.759q0,4.98,3.788,4.981a7.783,7.783,0,0,0,2.218-.318,22.019,22.019,0,0,0,2.16-.768v3.942a11.941,11.941,0,0,1-4.885.956,7.73,7.73,0,0,1-5.99-2.266q-2.081-2.266-2.083-6.55a10.442,10.442,0,0,1,1.009-4.707,7.219,7.219,0,0,1,2.9-3.122,8.77,8.77,0,0,1,4.455-1.092,12.271,12.271,0,0,1,5.345,1.215l-1.428,3.672a16.074,16.074,0,0,0-1.912-.757A6.724,6.724,0,0,0,259.07,399.8Z" transform="translate(-250.75 -395.979)" fill="#fff"/>
          <path id="Path_7087" data-name="Path 7087" d="M273.237,408.242a5.081,5.081,0,0,1-.816,2.849,5.331,5.331,0,0,1-2.347,1.935,8.694,8.694,0,0,1-3.6.691,14.572,14.572,0,0,1-2.891-.242,10.755,10.755,0,0,1-2.431-.844v-4.154a13.834,13.834,0,0,0,2.773,1.068,10.307,10.307,0,0,0,2.645.384,2.568,2.568,0,0,0,1.522-.36,1.107,1.107,0,0,0,.484-.926,1.013,1.013,0,0,0-.195-.619,2.254,2.254,0,0,0-.625-.537q-.431-.273-2.3-1.11a10.969,10.969,0,0,1-2.531-1.487,4.552,4.552,0,0,1-1.251-1.652,5.5,5.5,0,0,1-.406-2.207,4.418,4.418,0,0,1,1.735-3.717,7.64,7.64,0,0,1,4.768-1.334,13.391,13.391,0,0,1,5.464,1.239l-1.428,3.6a10.346,10.346,0,0,0-4.178-1.11,2.176,2.176,0,0,0-1.323.32.963.963,0,0,0-.412.79,1.143,1.143,0,0,0,.524.908,19.992,19.992,0,0,0,2.85,1.463,7.908,7.908,0,0,1,3.1,2.154A4.688,4.688,0,0,1,273.237,408.242Z" transform="translate(-246.575 -395.979)" fill="#fff"/>
          <path id="Path_7088" data-name="Path 7088" d="M282.518,408.242a5.091,5.091,0,0,1-.814,2.849,5.335,5.335,0,0,1-2.349,1.935,8.692,8.692,0,0,1-3.6.691,14.576,14.576,0,0,1-2.893-.242,10.742,10.742,0,0,1-2.43-.844v-4.154a13.8,13.8,0,0,0,2.773,1.068,10.3,10.3,0,0,0,2.643.384,2.568,2.568,0,0,0,1.522-.36,1.108,1.108,0,0,0,.485-.926,1.022,1.022,0,0,0-.195-.619,2.284,2.284,0,0,0-.626-.537q-.431-.273-2.3-1.11a11.029,11.029,0,0,1-2.531-1.487,4.567,4.567,0,0,1-1.251-1.652,5.5,5.5,0,0,1-.406-2.207,4.422,4.422,0,0,1,1.735-3.717,7.64,7.64,0,0,1,4.768-1.334,13.392,13.392,0,0,1,5.464,1.239l-1.428,3.6a10.346,10.346,0,0,0-4.178-1.11,2.171,2.171,0,0,0-1.322.32.96.96,0,0,0-.413.79,1.141,1.141,0,0,0,.526.908,19.945,19.945,0,0,0,2.849,1.463,7.908,7.908,0,0,1,3.1,2.154A4.678,4.678,0,0,1,282.518,408.242Z" transform="translate(-242.848 -395.979)" fill="#fff"/>
        </g>
      </g>
      <g id="Group_6922" data-name="Group 6922" transform="translate(39.359 202.87)">
        <rect id="Rectangle_1261" data-name="Rectangle 1261" width="62.169" height="62.169" rx="5.9" fill="url(#linear-gradient-8)"/>
        <g id="Group_6921" data-name="Group 6921" transform="translate(10.875 9.581)">
          <path id="Path_7089" data-name="Path 7089" d="M146.624,276.478a14.838,14.838,0,1,0-23.021,1.547L113.93,291.78a3.1,3.1,0,1,0,5.079,3.571L128.68,281.6A14.842,14.842,0,0,0,146.624,276.478Zm-18.06-.113a10.3,10.3,0,1,1,14.345-2.5A10.3,10.3,0,0,1,128.564,276.364Z" transform="translate(-113.365 -253.103)" fill="#fff"/>
          <path id="Path_7090" data-name="Path 7090" d="M126.587,271.076a7.314,7.314,0,0,1-1.776-10.179.454.454,0,0,0-.743-.523,8.223,8.223,0,0,0,2,11.444.454.454,0,0,0,.523-.743Z" transform="translate(-109.667 -250.261)" fill="#fff"/>
          <path id="Path_7091" data-name="Path 7091" d="M125.127,259.827a.42.42,0,0,0,.118.121.452.452,0,0,0,.512.007,7.319,7.319,0,0,1,5.876-.982.454.454,0,0,0,.227-.88,8.224,8.224,0,0,0-6.6,1.106A.454.454,0,0,0,125.127,259.827Z" transform="translate(-108.674 -251.206)" fill="#fff"/>
        </g>
      </g>
      <g id="Group_6924" data-name="Group 6924" transform="translate(345.505 63.212)">
        <rect id="Rectangle_1262" data-name="Rectangle 1262" width="112.797" height="112.797" rx="10.705" fill="url(#linear-gradient-8)"/>
        <g id="Group_6923" data-name="Group 6923" transform="translate(10.41 45.948)">
          <path id="Path_7092" data-name="Path 7092" d="M352.525,203.95h-6.667V193.941h-7.708V203.95h-6.667V179.4h6.667v9.1h7.708v-9.1h6.667Z" transform="translate(-331.484 -179.4)" fill="#fff"/>
          <path id="Path_7093" data-name="Path 7093" d="M360.673,203.95H354.04V184.824h-6V179.4h18.607v5.424h-5.979Z" transform="translate(-324.836 -179.4)" fill="#fff"/>
          <path id="Path_7094" data-name="Path 7094" d="M373.566,203.95l-5.021-17.682h-.151q.353,4.515.353,7.018V203.95h-5.878V179.4H371.7l5.122,17.43h.133l5.021-17.43h8.85v24.55h-6.1V193.186q0-.839.025-1.864t.227-5.02h-.151L379.88,203.95Z" transform="translate(-318.885 -179.4)" fill="#fff"/>
          <path id="Path_7095" data-name="Path 7095" d="M385.636,203.95V179.4h6.633v19.194h9.454v5.356Z" transform="translate(-309.745 -179.4)" fill="#fff"/>
        </g>
      </g>
    </g>
    <g id="Group_6932" data-name="Group 6932" transform="translate(47.864 121.656)">
      <path id="Path_7096" data-name="Path 7096" d="M331.863,123.114a7.229,7.229,0,1,1-7.229-7.229A7.23,7.23,0,0,1,331.863,123.114Z" transform="translate(64.436 -115.885)" fill="none" stroke="#707070" stroke-miterlimit="10" stroke-width="0.75"/>
      <circle id="Ellipse_26" data-name="Ellipse 26" cx="3.178" cy="3.178" r="3.178" transform="translate(237.371 4.05)" fill="url(#linear-gradient-14)"/>
      <path id="Path_7097" data-name="Path 7097" d="M449.913,256.334a3.178,3.178,0,1,1-3.178-3.178A3.179,3.179,0,0,1,449.913,256.334Z" transform="translate(115.077 -60.779)" fill="url(#linear-gradient-14)"/>
      <path id="Path_7098" data-name="Path 7098" d="M244.7,436.367a3.178,3.178,0,1,1-3.178-3.178A3.179,3.179,0,0,1,244.7,436.367Z" transform="translate(32.696 11.493)" fill="url(#linear-gradient-16)"/>
      <path id="Path_7099" data-name="Path 7099" d="M356.843,133.448a3.178,3.178,0,1,1-3.178-3.178A3.18,3.18,0,0,1,356.843,133.448Z" transform="translate(77.715 -110.11)" fill="url(#linear-gradient-17)"/>
      <circle id="Ellipse_27" data-name="Ellipse 27" cx="3.178" cy="3.178" r="3.178" transform="translate(29.306 118.24)" fill="url(#linear-gradient-14)"/>
      <path id="Path_7100" data-name="Path 7100" d="M59.636,218.535a5.415,5.415,0,1,1-5.415-5.415A5.415,5.415,0,0,1,59.636,218.535Z" transform="translate(-43.391 -76.851)" fill="none" stroke="#707070" stroke-miterlimit="10" stroke-width="0.75"/>
      <circle id="Ellipse_28" data-name="Ellipse 28" cx="5.415" cy="5.415" r="5.415" transform="translate(547.802 232.728)" fill="none" stroke="#707070" stroke-miterlimit="10" stroke-width="0.75"/>
      <circle id="Ellipse_29" data-name="Ellipse 29" cx="5.415" cy="5.415" r="5.415" transform="translate(0 333.82)" fill="none" stroke="#707070" stroke-miterlimit="10" stroke-width="0.75"/>
      <path id="Path_7101" data-name="Path 7101" d="M223.885,426.368a7.229,7.229,0,1,1-7.229-7.229A7.228,7.228,0,0,1,223.885,426.368Z" transform="translate(21.089 5.853)" fill="none" stroke="#707070" stroke-miterlimit="10" stroke-width="0.75"/>
      <g id="Group_6926" data-name="Group 6926" transform="translate(348.019 15.56)">
        <path id="Path_7102" data-name="Path 7102" d="M293.272,137.716l8.756-3.6-8.756-4.057v-3.073l12.712,6.35v1.83l-12.712,5.607Z" transform="translate(-293.272 -126.988)" fill="url(#linear-gradient-19)"/>
      </g>
      <g id="Group_6927" data-name="Group 6927" transform="translate(2.66 238.144)">
        <path id="Path_7103" data-name="Path 7103" d="M46.84,296.541l8.756-3.6-8.756-4.059v-3.072l12.714,6.35v1.83L46.84,299.6Z" transform="translate(-46.84 -285.813)" fill="url(#linear-gradient-20)"/>
      </g>
      <g id="Group_6928" data-name="Group 6928" transform="translate(93.937 16.444)">
        <path id="Path_7104" data-name="Path 7104" d="M124.683,141.406,111.971,135.8v-1.83l12.712-6.35v3.072l-8.756,4.059,8.756,3.6Z" transform="translate(-111.971 -127.619)" fill="url(#linear-gradient-21)"/>
      </g>
      <g id="Group_6929" data-name="Group 6929" transform="translate(529.654 106.669)">
        <path id="Path_7105" data-name="Path 7105" d="M435.592,205.786l-12.714-5.607v-1.83L435.592,192v3.072l-8.756,4.059,8.756,3.6Z" transform="translate(-422.878 -191.999)" fill="url(#linear-gradient-22)"/>
      </g>
      <g id="Group_6930" data-name="Group 6930" transform="translate(410.124 403.379)">
        <path id="Path_7106" data-name="Path 7106" d="M350.3,417.5,337.587,411.9v-1.83l12.712-6.35v3.072l-8.756,4.059,8.756,3.6Z" transform="translate(-337.587 -403.717)" fill="url(#linear-gradient-21)"/>
      </g>
      <g id="Group_6931" data-name="Group 6931" transform="translate(78.659 405.704)">
        <path id="Path_7107" data-name="Path 7107" d="M113.781,419.163l-12.712-5.607v-1.83l12.712-6.35v3.072l-8.756,4.059,8.756,3.6Z" transform="translate(-101.069 -405.376)" fill="url(#linear-gradient-24)"/>
      </g>
      <path id="Path_7108" data-name="Path 7108" d="M426.967,326.6a3.178,3.178,0,1,1-3.178-3.178A3.179,3.179,0,0,1,426.967,326.6Z" transform="translate(105.866 -32.572)" fill="url(#linear-gradient-25)"/>
    </g>
  </g>
</svg>
